<svg width="20" height="20" viewBox="0 0 20 20" fill="none" xmlns="http://www.w3.org/2000/svg">
<g>
  <path d="M4.43242 12.086L3.73625 14.6849L1.19176 14.7388C0.431328 13.3283 0 11.7146 0 9.99978C0 8.34154 0.403281 6.77779 1.11813 5.40088H1.11867L3.38398 5.81619L4.37633 8.06791C4.16863 8.67342 4.05543 9.32342 4.05543 9.99978C4.05551 10.7338 4.18848 11.4372 4.43242 12.086Z" fill="white"/>
  <path d="M19.8252 8.13208C19.94 8.737 19.9999 9.36173 19.9999 10.0002C19.9999 10.7161 19.9246 11.4145 19.7812 12.0881C19.2944 14.3804 18.0224 16.3821 16.2603 17.7986L16.2598 17.798L13.4065 17.6524L13.0027 15.1315C14.1719 14.4458 15.0857 13.3727 15.567 12.0881H10.2197V8.13208H15.645H19.8252Z" fill="white"/>
  <path d="M16.2595 17.7977L16.2601 17.7983C14.5464 19.1757 12.3694 19.9999 9.99965 19.9999C6.19141 19.9999 2.88043 17.8713 1.19141 14.7389L4.43207 12.0862C5.27656 14.34 7.45075 15.9444 9.99965 15.9444C11.0952 15.9444 12.1216 15.6483 13.0024 15.1312L16.2595 17.7977Z" fill="white"/>
  <path d="M16.383 2.30219L13.1434 4.95437C12.2319 4.38461 11.1544 4.05547 10 4.05547C7.39344 4.05547 5.17859 5.73348 4.37641 8.06812L1.11871 5.40109H1.11816C2.78246 2.1923 6.13519 0 10 0C12.4264 0 14.6511 0.864297 16.383 2.30219Z" fill="white"/>
</g>
</svg>
