<svg width="20" height="20" viewBox="0 0 20 20" fill="none" xmlns="http://www.w3.org/2000/svg">
<g>
  <path d="M17.2128 11.5377C17.8763 12.1854 18.5765 12.7948 19.1715 13.5079C19.4344 13.8247 19.6832 14.1517 19.8736 14.5194C20.1434 15.0422 19.899 15.6174 19.4303 15.6486L16.5166 15.6473C15.7651 15.7096 15.1657 15.4071 14.6616 14.8933C14.2582 14.4824 13.8846 14.0451 13.4967 13.6203C13.3377 13.4467 13.1712 13.2834 12.9724 13.1542C12.5747 12.8961 12.2294 12.9751 12.0021 13.3899C11.7706 13.8119 11.7181 14.2791 11.6953 14.7493C11.6641 15.4354 11.4567 15.6158 10.7676 15.6472C9.29472 15.7166 7.89691 15.4938 6.59835 14.7508C5.45351 14.0958 4.56577 13.1711 3.79304 12.1243C2.28863 10.0859 1.13648 7.84595 0.101008 5.54329C-0.132078 5.0245 0.0383911 4.74603 0.610813 4.73614C1.56132 4.71767 2.51171 4.71899 3.46335 4.73481C3.84968 4.74048 4.10542 4.96204 4.2546 5.327C4.76886 6.59149 5.39812 7.79454 6.18796 8.90966C6.39831 9.20653 6.6128 9.50344 6.9182 9.71239C7.25609 9.94376 7.51335 9.86708 7.6723 9.49067C7.77316 9.252 7.81734 8.99493 7.84007 8.73934C7.91538 7.85993 7.9253 6.982 7.79323 6.10567C7.71214 5.55876 7.40409 5.2047 6.85835 5.10122C6.57987 5.04845 6.62132 4.94481 6.75616 4.78587C6.99034 4.51173 7.21062 4.34106 7.64972 4.34106H10.9426C11.461 4.44337 11.5761 4.67626 11.6471 5.19786L11.6499 8.85555C11.6442 9.05747 11.7508 9.65673 12.1145 9.79036C12.4056 9.88551 12.5975 9.65262 12.7721 9.46805C13.5605 8.6313 14.1232 7.64239 14.6259 6.61841C14.849 6.16813 15.0409 5.70056 15.2267 5.23333C15.3645 4.88665 15.5806 4.71606 15.9711 4.7236L19.1403 4.72642C19.2343 4.72642 19.3294 4.72778 19.4204 4.74337C19.9544 4.83438 20.1008 5.06411 19.9359 5.5856C19.676 6.40376 19.1703 7.08559 18.6759 7.77055C18.1474 8.50184 17.5821 9.20813 17.058 9.94376C16.5764 10.6156 16.6147 10.9542 17.2128 11.5377Z" fill="white"/>
</g>
</svg>
