<svg width="24" height="24" viewBox="0 0 24 24" fill="none" xmlns="http://www.w3.org/2000/svg">
  <path fill-rule="evenodd" clip-rule="evenodd" d="M8 11V17C8 18.6569 9.34315 20 11 20H13C14.6569 20 16 18.6569 16 17V11H18V17C18 19.7614 15.7614 22 13 22H11C8.23858 22 6 19.7614 6 17V11H8Z"/>
  <path fill-rule="evenodd" clip-rule="evenodd" d="M4.48096 8.97055L11.9706 12.7061L19.4602 8.97055L11.9706 5.23496L4.48096 8.97055ZM1.79415 8.07568C1.05592 8.44389 1.05592 9.49721 1.79414 9.86542L11.5242 14.7185C11.8053 14.8587 12.1358 14.8587 12.4169 14.7185L22.147 9.86542C22.8852 9.49721 22.8852 8.44389 22.147 8.07568L12.4169 3.22261C12.1358 3.08243 11.8053 3.08243 11.5242 3.22261L1.79415 8.07568Z"/>
  <path d="M20 9H22V15H20V9Z"/>
  <path d="M20 16H22V18H20V16Z"/>
</svg>
