<svg width="100" height="100" viewBox="0 0 100 100" fill="none" xmlns="http://www.w3.org/2000/svg">
<path d="M32.48 28.0896L35.49 26.0996H39.94L42.94 28.0896V61.1796H32.48V28.0896Z" stroke="#393C4C" stroke-width="1.5" stroke-miterlimit="10" stroke-linecap="round" stroke-linejoin="round"/>
<path d="M38.4448 28.9916V26.1016H36.9848V28.9916H38.4448Z" stroke="#393C4C" stroke-width="1.5" stroke-miterlimit="10" stroke-linecap="round" stroke-linejoin="round"/>
<path d="M37.71 30.9796C38.11 30.9796 38.44 30.6796 38.44 30.3096C38.44 29.9396 38.11 29.6396 37.71 29.6396C37.31 29.6396 36.98 29.9396 36.98 30.3096C36.98 30.6796 37.31 30.9796 37.71 30.9796Z" stroke="#393C4C" stroke-width="1.5" stroke-miterlimit="10" stroke-linecap="round" stroke-linejoin="round"/>
<path d="M32.48 33.9795H42.94" stroke="#393C4C" stroke-width="1.5" stroke-miterlimit="10" stroke-linecap="round" stroke-linejoin="round"/>
<path d="M32.48 54.7295H42.94" stroke="#393C4C" stroke-width="1.5" stroke-miterlimit="10" stroke-linecap="round" stroke-linejoin="round"/>
<path d="M35.1802 55.5396V57.7696L35.9402 58.4696V61.1595" stroke="#393C4C" stroke-width="1.5" stroke-miterlimit="10" stroke-linecap="round" stroke-linejoin="round"/>
<path d="M40.0998 55.5396V57.7696L39.3398 58.4696V61.1595" stroke="#393C4C" stroke-width="1.5" stroke-miterlimit="10" stroke-linecap="round" stroke-linejoin="round"/>
<path d="M52.7998 40.1299H66.6198" stroke="#393C4C" stroke-width="2" stroke-miterlimit="10" stroke-linecap="round" stroke-linejoin="round"/>
<path d="M52.7998 44.9297H66.6198" stroke="#393C4C" stroke-width="2" stroke-miterlimit="10" stroke-linecap="round" stroke-linejoin="round"/>
<path d="M52.7998 49.73H66.6198" stroke="#393C4C" stroke-width="2" stroke-miterlimit="10" stroke-linecap="round" stroke-linejoin="round"/>
<path d="M52.7998 54.5298H66.6198" stroke="#393C4C" stroke-width="2" stroke-miterlimit="10" stroke-linecap="round" stroke-linejoin="round"/>
<path d="M73.27 65.7198V23.2098C73.27 19.5098 76.27 16.5098 79.97 16.5098C83.67 16.5098 86.67 19.5098 86.67 23.2098V34.5098L73.27 34.4798" stroke="#393C4C" stroke-width="2" stroke-miterlimit="10" stroke-linecap="round" stroke-linejoin="round"/>
<path d="M22.9102 68.3998V23.2098C22.9102 19.5098 25.9102 16.5098 29.6102 16.5098H79.9702" stroke="#393C4C" stroke-width="2" stroke-miterlimit="10" stroke-linecap="round" stroke-linejoin="round"/>
<path d="M63.5 84.67H21.77C16.38 84.67 12 80.3 12 74.9V68.4H53.73V74.91C53.74 80.3 58.11 84.67 63.5 84.67ZM63.5 84.67C68.89 84.67 73.27 80.3 73.27 74.9V60.98" stroke="#393C4C" stroke-width="2" stroke-miterlimit="10" stroke-linecap="round" stroke-linejoin="round"/>
<path d="M53.7998 29.1299H65.6198" stroke="#F91A2B" stroke-width="4" stroke-miterlimit="10" stroke-linecap="round" stroke-linejoin="round"/>
</svg>
