<svg width="100" height="100" viewBox="0 0 100 100" fill="none" xmlns="http://www.w3.org/2000/svg">
<path d="M23.3984 15.7695H17.3984V76.1095H42.0484C45.9784 76.1095 49.5584 78.4295 50.5084 82.0595" stroke="#393C4C" stroke-width="2" stroke-miterlimit="10" stroke-linecap="round"/>
<path d="M50.5491 82.0595V24.2295C50.5491 23.1185 50.3302 22.0184 49.9051 20.992C49.4799 19.9656 48.8568 19.033 48.0712 18.2474C47.2856 17.4618 46.353 16.8387 45.3266 16.4135C44.3002 15.9884 43.2 15.7695 42.0891 15.7695H32.5391" stroke="#393C4C" stroke-width="2" stroke-miterlimit="10" stroke-linecap="round"/>
<path d="M56.6208 76.4004C55.193 76.7097 53.8753 77.3988 52.8069 78.3951C51.7385 79.3913 50.959 80.6577 50.5508 82.0604" stroke="#393C4C" stroke-width="2" stroke-miterlimit="10" stroke-linecap="round"/>
<path d="M50.5508 82.0595V24.2295C50.5508 21.9858 51.4421 19.834 53.0287 18.2474C54.6152 16.6608 56.7671 15.7695 59.0108 15.7695H83.6508V61.5095" stroke="#393C4C" stroke-width="2" stroke-miterlimit="10" stroke-linecap="round"/>
<path d="M34.5517 37.1803L29.0317 34.0103L23.5117 37.1803V12.5703H34.5517V37.1803Z" fill="#F91A2B" stroke="#F91A2B" stroke-width="2" stroke-linejoin="round"/>
<path d="M12.2812 18.3398V82.3398H42.7513C42.7513 82.3398 43.1612 86.8298 50.5512 86.8298" stroke="#393C4C" stroke-width="2" stroke-linecap="round" stroke-linejoin="round"/>
<path d="M58.1789 82.2998C58.1789 82.2998 57.8889 86.7898 50.3789 86.7898" stroke="#393C4C" stroke-width="2" stroke-linecap="round" stroke-linejoin="round"/>
<path d="M88.6289 18.3496V61.5096" stroke="#393C4C" stroke-width="2" stroke-linecap="round" stroke-linejoin="round"/>
<path d="M88.6512 69.0804C88.6738 68.7074 88.6198 68.3336 88.4926 67.9822C88.3653 67.6307 88.1675 67.3091 87.9114 67.0369C87.6552 66.7648 87.346 66.5479 87.0029 66.3997C86.6598 66.2515 86.29 66.175 85.9162 66.175C85.5425 66.175 85.1727 66.2515 84.8296 66.3997C84.4865 66.5479 84.1773 66.7648 83.9211 67.0369C83.6649 67.3091 83.4672 67.6307 83.3399 67.9822C83.2127 68.3336 83.1587 68.7074 83.1812 69.0804V67.8604C83.1812 67.1364 82.8936 66.442 82.3817 65.9301C81.8697 65.4181 81.1753 65.1304 80.4512 65.1304C79.7272 65.1304 79.0328 65.4181 78.5208 65.9301C78.0089 66.442 77.7212 67.1364 77.7212 67.8604V67.1205C77.6791 66.4237 77.3726 65.7692 76.8643 65.2908C76.356 64.8123 75.6843 64.5459 74.9862 64.5459C74.2882 64.5459 73.6165 64.8123 73.1082 65.2908C72.5999 65.7692 72.2934 66.4237 72.2513 67.1205V58.3705C72.2091 57.6737 71.9026 57.0192 71.3943 56.5408C70.886 56.0623 70.2143 55.7959 69.5163 55.7959C68.8182 55.7959 68.1465 56.0623 67.6382 56.5408C67.1299 57.0192 66.8234 57.6737 66.7812 58.3705V85.9204H88.6312V78.6304L88.6512 69.0804Z" stroke="#393C4C" stroke-width="2" stroke-linecap="round" stroke-linejoin="round"/>
<path d="M66.7804 73.47L64.4404 71.13C63.919 70.6588 63.2366 70.406 62.5341 70.4237C61.8316 70.4415 61.1627 70.7285 60.6658 71.2254C60.1689 71.7223 59.8819 72.3911 59.8642 73.0936C59.8464 73.7962 60.0992 74.4786 60.5704 75L66.3504 80.77" stroke="#393C4C" stroke-width="2" stroke-linecap="round" stroke-linejoin="round"/>
</svg>
