<svg width="48" height="48" viewBox="0 0 48 48" fill="none" xmlns="http://www.w3.org/2000/svg">
  <path d="M30 8H10V40H38V16H30V8ZM6 5.984C6 4.888 6.894 4 7.998 4H32L42 14V41.986C42.0018 42.2486 41.9519 42.5091 41.8531 42.7524C41.7543 42.9958 41.6085 43.2173 41.4241 43.4043C41.2397 43.5913 41.0203 43.7402 40.7783 43.8424C40.5364 43.9446 40.2766 43.9982 40.014 44H7.986C7.46076 43.9963 6.95803 43.7862 6.58644 43.415C6.21484 43.0438 6.00419 42.5412 6 42.016V5.984ZM26 24V32H22V24H16L24 16L32 24H26Z" fill="#A0A5C0" fill-opacity="0.4"/>
</svg>
