<svg width="24" height="24" xmlns="http://www.w3.org/2000/svg"><path fill="#8E94B1" opacity=".4" d="M21.7 15.9c-.1-.2-.1-.3-.3-.4-.1-.1-.3-.2-.4-.2l-6-1.4h-.5c-.2 0-.3.1-.4.2-.1.1-.1.1-.8 1.4-2.2-1-3.9-2.7-4.9-4.9 1.3-.6 1.3-.6 1.4-.7.1-.1.2-.3.2-.4V9L8.7 3c0-.2-.1-.3-.2-.4-.1-.2-.2-.3-.4-.3-.2-.1-.5-.2-.7-.2-.3-.1-.5-.1-.8-.1-1.2 0-2.4.5-3.3 1.3S2 5.4 2 6.6c0 4.1 1.6 8 4.5 10.9S13.3 22 17.4 22c.6 0 1.2-.1 1.8-.4.6-.2 1.1-.6 1.5-1 .4-.4.8-.9 1-1.5.2-.6.4-1.2.4-1.8 0-.3 0-.5-.1-.8-.1-.1-.2-.4-.3-.6z"/></svg>