<svg width="24" height="24" xmlns="http://www.w3.org/2000/svg" viewBox="0 0 24 24">
	<path fill="#8E94B1" opacity="0.4" d="M21.7,15.9c-0.1-0.2-0.1-0.3-0.3-0.4c-0.1-0.1-0.3-0.2-0.4-0.2l-6-1.4c-0.2,0-0.3,0-0.5,0c-0.2,0-0.3,0.1-0.4,0.2c-0.1,0.1-0.1,0.1-0.8,1.4c-2.2-1-3.9-2.7-4.9-4.9C9.7,10,9.7,10,9.8,9.9c0.1-0.1,0.2-0.3,0.2-0.4c0-0.2,0-0.3,0-0.5L8.7,3c0-0.2-0.1-0.3-0.2-0.4C8.4,2.4,8.3,2.3,8.1,2.3C7.9,2.2,7.6,2.1,7.4,2.1C7.1,2,6.9,2,6.6,2C5.4,2,4.2,2.5,3.3,3.3S2,5.4,2,6.6c0,4.1,1.6,8,4.5,10.9S13.3,22,17.4,22c0.6,0,1.2-0.1,1.8-0.4c0.6-0.2,1.1-0.6,1.5-1c0.4-0.4,0.8-0.9,1-1.5c0.2-0.6,0.4-1.2,0.4-1.8c0-0.3,0-0.5-0.1-0.8C21.9,16.4,21.8,16.1,21.7,15.9z"/>
</svg>
