<svg width="82" height="36" viewBox="0 0 82 36" fill="none" xmlns="http://www.w3.org/2000/svg">
  <path d="M0 26.9222C0 32.5193 4.1552 35.1051 8.1518 35.1051C10.0549 35.1051 11.6726 34.7451 13.1 34.025V31.4064C11.8312 32.192 10.1501 32.683 8.50071 32.683C5.51912 32.683 2.53753 30.8827 2.53753 26.8567C2.53753 22.7325 5.61428 21.0304 8.56415 21.0304C10.1818 21.0304 11.7995 21.5214 12.9414 22.4379V19.8848C11.6409 19.001 9.95979 18.6083 8.24696 18.6083C4.28207 18.6083 0 21.1941 0 26.9222Z" fill="#0E4274"/>
  <path d="M16.6894 8.34741V34.7123H19.227V24.1727C20.242 22.6015 21.9231 21.0304 24.1751 21.0304C26.5223 21.0304 28.2669 22.4052 28.2669 25.351V34.7123H30.8044V25.0237C30.8044 21.1941 28.1083 18.6083 24.4606 18.6083C22.2086 18.6083 20.3054 19.7539 19.227 20.9977V8.34741H16.6894Z" fill="#0E4274"/>
  <path d="M34.2591 26.8567C34.2591 32.4538 38.1922 35.1051 42.6963 35.1051C44.6946 35.1051 46.693 34.7123 48.0886 33.9595V31.4064C46.7881 32.1593 44.9484 32.683 43.077 32.683C40.0002 32.683 37.1138 31.3082 36.7966 28.0023H48.9133C49.8649 23.5508 47.708 18.6083 41.8399 18.6083C38.224 18.6083 34.2591 21.3577 34.2591 26.8567ZM46.6612 25.7111H36.7966C36.9869 22.6343 39.3976 21.0304 41.9985 21.0304C45.8683 21.0304 46.8833 24.0417 46.6612 25.7111Z" fill="#0E4274"/>
  <path d="M51.6364 26.9222C51.6364 32.5193 55.7916 35.1051 59.7882 35.1051C61.6914 35.1051 63.309 34.7451 64.7364 34.025V31.4064C63.4676 32.192 61.7865 32.683 60.1371 32.683C57.1555 32.683 54.1739 30.8827 54.1739 26.8567C54.1739 22.7325 57.2507 21.0304 60.2006 21.0304C61.8182 21.0304 63.4359 21.5214 64.5778 22.4379V19.8848C63.2773 19.001 61.5962 18.6083 59.8834 18.6083C55.9185 18.6083 51.6364 21.1941 51.6364 26.9222Z" fill="#0E4274"/>
  <path d="M26.1966 13.5264C24.7872 13.5264 23.5354 12.855 22.4412 11.5124L23.0846 10.4694C23.5748 11.0808 24.065 11.5303 24.5553 11.8181C25.0542 12.1058 25.6145 12.2496 26.236 12.2496C26.8488 12.2496 27.3434 12.0518 27.7198 11.6562C28.0962 11.2486 28.2845 10.7211 28.2845 10.0738C28.2845 9.46237 28.1181 8.97685 27.7855 8.6172C27.4528 8.25756 26.8225 7.94586 25.8946 7.68212C24.8004 7.35844 24.0125 6.92087 23.531 6.36941C23.0496 5.81795 22.8088 5.03273 22.8088 4.01373C22.8088 3.0187 23.0933 2.19751 23.6623 1.55015C24.2314 0.902784 24.9536 0.579102 25.829 0.579102C27.0458 0.579102 28.1225 1.0946 29.0592 2.12558L28.4552 3.2225C27.641 2.3114 26.7569 1.85585 25.8027 1.85585C25.2162 1.85585 24.7435 2.05365 24.3846 2.44926C24.0256 2.83289 23.8462 3.3244 23.8462 3.92381C23.8462 4.5472 24.0169 5.03872 24.3583 5.39837C24.7084 5.75801 25.3694 6.0817 26.3411 6.36941C27.3828 6.68111 28.14 7.11868 28.6127 7.68212C29.0942 8.23358 29.3349 8.99483 29.3349 9.96588C29.3349 11.0328 29.0417 11.896 28.4552 12.5553C27.8686 13.2027 27.1158 13.5264 26.1966 13.5264Z" fill="#0E4274"/>
  <path d="M31.4444 13.3466V0.758925H38.0887V2.05365H32.4818V6.35143H37.4978V7.64616H32.4818V12.0518H38.1544V13.3466H31.4444Z" fill="#0E4274"/>
  <path d="M40.2412 13.3466V0.758925H41.2785V12.0338H46.4521V13.3466H40.2412Z" fill="#0E4274"/>
  <path d="M48.3711 13.3466V0.758925H54.976V2.07164H49.4084V6.56722H54.3851V7.86195H49.4084V13.3466H48.3711Z" fill="#0E4274"/>
  <path d="M59.864 13.3466V8.36545L56.0429 0.758925H57.3035L60.4024 7.05274L63.5275 0.758925H64.7356L60.9145 8.34747V13.3466H59.864Z" fill="#0E4274"/>
  <path d="M68.1892 5.75806H70.7787V10.0738H68.1892V5.75806Z" fill="#E9342B"/>
  <path d="M68.1892 11.8H70.7787V16.1158H68.1892V11.8Z" fill="#E9342B"/>
  <path d="M79.411 17.8422H82.0005V34.2421H79.411L72.0742 26.4737L79.411 17.8422Z" fill="#E9342B"/>
  <path d="M68.1892 17.8422H70.7787V22.1579H68.1892V17.8422Z" fill="#E9342B"/>
  <path d="M68.1892 23.8842H70.7787V28.1999H68.1892V23.8842Z" fill="#E9342B"/>
  <path d="M68.1892 29.9263H70.7787V34.242H68.1892V29.9263Z" fill="#E9342B"/>
</svg>
