<svg width="69" height="97" viewBox="0 0 69 97" fill="none" xmlns="http://www.w3.org/2000/svg">
<path d="M41.75 85.7706H7V6.89062H61.19" stroke="#393C4C" stroke-miterlimit="10" stroke-linecap="round" stroke-linejoin="round"/>
<path d="M61.1883 6.89062V85.7706H57.4883" stroke="#393C4C" stroke-miterlimit="10" stroke-linecap="round" stroke-linejoin="round"/>
<path d="M57.95 91.66H67.19V1H1V91.66H41.29" stroke="#393C4C" stroke-width="2" stroke-miterlimit="10" stroke-linecap="round" stroke-linejoin="round"/>
<path d="M53.4972 95.4508L49.4372 92.1208L45.3672 95.4508V80.3008H53.4972V95.4508Z" fill="#F91A2B" stroke="#F91A2B" stroke-width="2" stroke-miterlimit="10" stroke-linecap="round" stroke-linejoin="round"/>
<path d="M49.2597 84.6502C53.9983 84.6502 57.8397 80.8088 57.8397 76.0702C57.8397 71.3316 53.9983 67.4902 49.2597 67.4902C44.5211 67.4902 40.6797 71.3316 40.6797 76.0702C40.6797 80.8088 44.5211 84.6502 49.2597 84.6502Z" fill="white" stroke="white" stroke-width="4" stroke-miterlimit="10"/>
<path d="M21.9297 49.4492H46.2497" stroke="#393C4C" stroke-width="2" stroke-miterlimit="10" stroke-linecap="round" stroke-linejoin="round"/>
<path d="M54.1081 59.2891H14.0781" stroke="#393C4C" stroke-miterlimit="10" stroke-linecap="round" stroke-linejoin="round"/>
<path d="M29.1881 77.3008H14.0781" stroke="#393C4C" stroke-miterlimit="10" stroke-linecap="round" stroke-linejoin="round"/>
<path d="M54.1081 54.8496H14.0781" stroke="#393C4C" stroke-miterlimit="10" stroke-linecap="round" stroke-linejoin="round"/>
<path d="M54.1081 63.7393H14.0781" stroke="#393C4C" stroke-miterlimit="10" stroke-linecap="round" stroke-linejoin="round"/>
<path d="M13.748 73.8012C13.748 73.8012 13.478 71.0112 15.338 71.7212C17.198 72.4312 17.968 74.0712 19.278 72.7012C20.588 71.3312 21.798 72.8712 23.438 73.2012C25.078 73.5312 25.408 71.7112 26.998 72.7012C28.588 73.6912 29.518 73.8012 29.518 73.8012" stroke="#393C4C" stroke-miterlimit="10" stroke-linecap="round" stroke-linejoin="round"/>
<path d="M49.26 82.5805C52.8554 82.5805 55.77 79.6659 55.77 76.0705C55.77 72.4752 52.8554 69.5605 49.26 69.5605C45.6646 69.5605 42.75 72.4752 42.75 76.0705C42.75 79.6659 45.6646 82.5805 49.26 82.5805Z" fill="#F91A2B" stroke="#F91A2B" stroke-width="4" stroke-miterlimit="10" stroke-linecap="round" stroke-linejoin="round"/>
<path d="M48.5997 77.3609V80.3009H46.6797V71.9009C47.1397 71.9009 47.6397 71.9009 48.1897 71.8909C48.7397 71.8809 49.1897 71.8809 49.5297 71.8809C51.5997 71.8809 52.6397 72.7809 52.6397 74.5709C52.6397 75.7209 52.1697 76.5309 51.2197 76.9909L53.6697 80.3009H51.3497L49.3097 77.3609H48.5997ZM49.4397 73.6809C49.4297 73.6809 49.3997 73.6809 49.3297 73.6909C49.2697 73.6909 49.1697 73.7009 49.0297 73.7009C48.8897 73.7009 48.7497 73.7109 48.5997 73.7109V75.5709H49.2997C50.1697 75.5709 50.6097 75.2509 50.6097 74.6009C50.5997 73.9809 50.2197 73.6809 49.4397 73.6809Z" fill="white"/>
<path d="M30.4102 16.3297L32.8402 14.7197H36.4302L38.8602 16.3297V43.0397H30.4102V16.3297Z" stroke="#393C4C" stroke-width="1.5" stroke-miterlimit="10" stroke-linecap="round" stroke-linejoin="round"/>
<path d="M35.2241 17.0488V14.7188H34.0441V17.0488H35.2241Z" stroke="#393C4C" stroke-width="1.5" stroke-miterlimit="10" stroke-linecap="round" stroke-linejoin="round"/>
<path d="M34.6403 19.79C34.9703 19.79 35.2303 19.55 35.2303 19.25C35.2303 18.95 34.9703 18.71 34.6403 18.71C34.3103 18.71 34.0503 18.95 34.0503 19.25C34.0503 19.55 34.3103 19.79 34.6403 19.79Z" stroke="#393C4C" stroke-width="1.5" stroke-miterlimit="10" stroke-linecap="round" stroke-linejoin="round"/>
<path d="M30.4102 22.1494H38.8602" stroke="#393C4C" stroke-width="1.5" stroke-miterlimit="10" stroke-linecap="round" stroke-linejoin="round"/>
<path d="M30.4102 37.8301H38.8602" stroke="#393C4C" stroke-width="1.5" stroke-miterlimit="10" stroke-linecap="round" stroke-linejoin="round"/>
<path d="M32.71 38.6797V40.2897L33.32 40.8597V43.0297" stroke="#393C4C" stroke-width="1.5" stroke-miterlimit="10" stroke-linecap="round" stroke-linejoin="round"/>
<path d="M36.56 38.6797V40.2897L35.96 40.8597V43.0297" stroke="#393C4C" stroke-width="1.5" stroke-miterlimit="10" stroke-linecap="round" stroke-linejoin="round"/>
</svg>
