<svg width="69" height="98" viewBox="0 0 69 98" fill="none" xmlns="http://www.w3.org/2000/svg">
<path d="M41.75 86.3605H7V7.48047H61.19" stroke="#393C4C" stroke-miterlimit="10" stroke-linecap="round" stroke-linejoin="round"/>
<path d="M61.1883 7.48047V86.3605H57.4883" stroke="#393C4C" stroke-miterlimit="10" stroke-linecap="round" stroke-linejoin="round"/>
<path d="M57.95 92.2498H67.19V1.58984H1V92.2498H41.29" stroke="#393C4C" stroke-width="2" stroke-miterlimit="10" stroke-linecap="round" stroke-linejoin="round"/>
<path d="M53.4972 96.0406L49.4372 92.7106L45.3672 96.0406V80.8906H53.4972V96.0406Z" fill="#F91A2B" stroke="#F91A2B" stroke-width="2" stroke-miterlimit="10" stroke-linecap="round" stroke-linejoin="round"/>
<path d="M49.2597 85.2401C53.9983 85.2401 57.8397 81.3987 57.8397 76.6601C57.8397 71.9215 53.9983 68.0801 49.2597 68.0801C44.5211 68.0801 40.6797 71.9215 40.6797 76.6601C40.6797 81.3987 44.5211 85.2401 49.2597 85.2401Z" fill="white" stroke="white" stroke-width="4" stroke-miterlimit="10"/>
<path d="M21.9297 50.0391H46.2497" stroke="#393C4C" stroke-width="2" stroke-miterlimit="10" stroke-linecap="round" stroke-linejoin="round"/>
<path d="M54.0981 59.8789H14.0781" stroke="#393C4C" stroke-miterlimit="10" stroke-linecap="round" stroke-linejoin="round"/>
<path d="M29.1881 77.8906H14.0781" stroke="#393C4C" stroke-miterlimit="10" stroke-linecap="round" stroke-linejoin="round"/>
<path d="M54.0981 55.4395H14.0781" stroke="#393C4C" stroke-miterlimit="10" stroke-linecap="round" stroke-linejoin="round"/>
<path d="M54.0981 64.3291H14.0781" stroke="#393C4C" stroke-miterlimit="10" stroke-linecap="round" stroke-linejoin="round"/>
<path d="M13.748 74.391C13.748 74.391 13.478 71.601 15.338 72.311C17.198 73.021 17.968 74.661 19.278 73.291C20.588 71.921 21.798 73.461 23.438 73.791C25.078 74.121 25.408 72.301 26.998 73.291C28.588 74.281 29.518 74.391 29.518 74.391" stroke="#393C4C" stroke-miterlimit="10" stroke-linecap="round" stroke-linejoin="round"/>
<path d="M49.26 83.1704C52.8554 83.1704 55.77 80.2558 55.77 76.6604C55.77 73.065 52.8554 70.1504 49.26 70.1504C45.6646 70.1504 42.75 73.065 42.75 76.6604C42.75 80.2558 45.6646 83.1704 49.26 83.1704Z" fill="#F91A2B" stroke="#F91A2B" stroke-width="4" stroke-miterlimit="10" stroke-linecap="round" stroke-linejoin="round"/>
<path d="M38.0499 16.4605C37.6999 16.1605 37.2199 15.5805 37.2199 15.1905C37.2199 14.8005 37.2199 14.3105 37.2199 14.3105H34.6899H34.5399H32.0099C32.0099 14.3105 32.0099 14.8105 32.0099 15.1905C32.0099 15.5805 31.5299 16.1605 31.1799 16.4605C30.8299 16.7605 30.3599 17.0805 30.3599 18.2105C30.3599 19.1905 30.3599 36.2605 30.3599 40.6505C30.3599 41.3005 30.3599 41.6705 30.3599 41.6705V41.7405C30.3599 43.0305 31.5199 44.0705 32.9499 44.0705H36.3099C37.7399 44.0705 38.8999 43.0305 38.8999 41.7405V41.6705C38.8999 41.6705 38.8999 41.3005 38.8999 40.6505C38.8999 36.2605 38.8999 19.1905 38.8999 18.2105C38.8699 17.0805 38.3999 16.7705 38.0499 16.4605Z" stroke="#393C4C" stroke-width="1.5" stroke-miterlimit="10" stroke-linecap="round" stroke-linejoin="round"/>
<path d="M34.6096 20.5303C33.9096 20.5303 33.3496 21.0903 33.3496 21.7903V23.7703V27.1403V29.1203C33.3496 29.8203 33.9096 30.3803 34.6096 30.3803C35.3096 30.3803 35.8696 29.8203 35.8696 29.1203V27.1403V23.7703V21.7903C35.8696 21.0903 35.2996 20.5303 34.6096 20.5303Z" fill="#393C4C" stroke="#393C4C" stroke-width="1.5" stroke-miterlimit="10" stroke-linecap="round" stroke-linejoin="round"/>
<path d="M38.8698 35.0508H30.3398V39.8908H38.8698V35.0508Z" stroke="#393C4C" stroke-width="1.5" stroke-miterlimit="10" stroke-linecap="round" stroke-linejoin="round"/>
<path d="M34.61 38.0804C34.27 38.0804 34 37.8104 34 37.4704C34 37.1304 34.27 36.8604 34.61 36.8604C34.95 36.8604 35.22 37.1304 35.22 37.4704C35.22 37.8104 34.95 38.0804 34.61 38.0804Z" fill="#393C4C"/>
<path d="M34.61 38.0804C34.27 38.0804 34 37.8104 34 37.4704C34 37.1304 34.27 36.8604 34.61 36.8604C34.95 36.8604 35.22 37.1304 35.22 37.4704C35.22 37.8104 34.95 38.0804 34.61 38.0804Z" stroke="#393C4C" stroke-width="1.5" stroke-linejoin="round"/>
<path d="M48.17 77.9507V80.8907H46.25V72.4907C46.71 72.4907 47.21 72.4907 47.76 72.4807C48.31 72.4707 48.76 72.4707 49.1 72.4707C51.17 72.4707 52.21 73.3707 52.21 75.1607C52.21 76.3107 51.74 77.1207 50.79 77.5807L53.24 80.8907H50.91L48.87 77.9507H48.17ZM49.01 74.2707C49 74.2707 48.97 74.2707 48.9 74.2807C48.84 74.2807 48.74 74.2907 48.6 74.2907C48.46 74.2907 48.32 74.3007 48.17 74.3007V76.1607H48.87C49.74 76.1607 50.18 75.8407 50.18 75.1907C50.18 74.5707 49.79 74.2707 49.01 74.2707Z" fill="white"/>
</svg>
