<svg width="69" height="98" viewBox="0 0 69 98" fill="none" xmlns="http://www.w3.org/2000/svg">
<path d="M42.7495 17.7207C42.7495 15.6507 41.0695 13.9707 38.9995 13.9707H29.1895C27.1195 13.9707 25.4395 15.6507 25.4395 17.7207V36.9507C25.4395 36.9707 25.4395 36.9807 25.4395 37.0007C25.4395 37.0207 25.4395 37.0307 25.4395 37.0507C25.4395 41.4507 29.3195 45.0207 34.0995 45.0207C38.8795 45.0207 42.7595 41.4507 42.7595 37.0507C42.7595 37.0307 42.7595 37.0207 42.7595 37.0007C42.7595 36.9807 42.7595 36.9707 42.7595 36.9507V17.7207H42.7495Z" stroke="#393C4C" stroke-width="1.5" stroke-miterlimit="10" stroke-linecap="round" stroke-linejoin="round"/>
<path d="M25.4297 20.1309H42.7497" stroke="#393C4C" stroke-width="1.5" stroke-miterlimit="10" stroke-linecap="round" stroke-linejoin="round"/>
<path d="M25.4297 33.1606H42.7497" stroke="#393C4C" stroke-width="1.5" stroke-miterlimit="10" stroke-linecap="round" stroke-linejoin="round"/>
<path d="M26.0195 37.9805H41.7895" stroke="#393C4C" stroke-width="1.5" stroke-miterlimit="10" stroke-linecap="round" stroke-linejoin="round"/>
<path d="M28.6797 42.7605L31.7597 37.9805" stroke="#393C4C" stroke-width="1.5" stroke-miterlimit="10" stroke-linecap="round" stroke-linejoin="round"/>
<path d="M39.2296 42.7605L36.1396 37.9805" stroke="#393C4C" stroke-width="1.5" stroke-miterlimit="10" stroke-linecap="round" stroke-linejoin="round"/>
<path d="M36.5199 14.9606C36.1599 15.5206 35.1999 15.9206 34.0799 15.9206C32.9199 15.9206 31.9399 15.4906 31.6099 14.9106" stroke="#393C4C" stroke-width="1.5" stroke-miterlimit="10" stroke-linecap="round" stroke-linejoin="round"/>
<path d="M41.75 86.3605H7V7.48047H61.19" stroke="#393C4C" stroke-miterlimit="10" stroke-linecap="round" stroke-linejoin="round"/>
<path d="M61.1883 7.48047V86.3605H57.4883" stroke="#393C4C" stroke-miterlimit="10" stroke-linecap="round" stroke-linejoin="round"/>
<path d="M57.95 92.2498H67.19V1.58984H1V92.2498H41.29" stroke="#393C4C" stroke-width="2" stroke-miterlimit="10" stroke-linecap="round" stroke-linejoin="round"/>
<path d="M53.4972 96.0406L49.4372 92.7106L45.3672 96.0406V80.8906H53.4972V96.0406Z" fill="#F91A2B" stroke="#F91A2B" stroke-width="2" stroke-miterlimit="10" stroke-linecap="round" stroke-linejoin="round"/>
<path d="M49.2597 85.2401C53.9983 85.2401 57.8397 81.3987 57.8397 76.6601C57.8397 71.9215 53.9983 68.0801 49.2597 68.0801C44.5211 68.0801 40.6797 71.9215 40.6797 76.6601C40.6797 81.3987 44.5211 85.2401 49.2597 85.2401Z" fill="white" stroke="white" stroke-width="4" stroke-miterlimit="10"/>
<path d="M21.9297 50.0391H46.2497" stroke="#393C4C" stroke-width="2" stroke-miterlimit="10" stroke-linecap="round" stroke-linejoin="round"/>
<path d="M54.0981 59.8789H14.0781" stroke="#393C4C" stroke-miterlimit="10" stroke-linecap="round" stroke-linejoin="round"/>
<path d="M29.1881 77.8906H14.0781" stroke="#393C4C" stroke-miterlimit="10" stroke-linecap="round" stroke-linejoin="round"/>
<path d="M54.0981 55.4395H14.0781" stroke="#393C4C" stroke-miterlimit="10" stroke-linecap="round" stroke-linejoin="round"/>
<path d="M54.0981 64.3291H14.0781" stroke="#393C4C" stroke-miterlimit="10" stroke-linecap="round" stroke-linejoin="round"/>
<path d="M13.748 74.391C13.748 74.391 13.478 71.601 15.338 72.311C17.198 73.021 17.968 74.661 19.278 73.291C20.588 71.921 21.798 73.461 23.438 73.791C25.078 74.121 25.408 72.301 26.998 73.291C28.588 74.281 29.518 74.391 29.518 74.391" stroke="#393C4C" stroke-miterlimit="10" stroke-linecap="round" stroke-linejoin="round"/>
<path d="M49.26 83.1704C52.8554 83.1704 55.77 80.2558 55.77 76.6604C55.77 73.065 52.8554 70.1504 49.26 70.1504C45.6646 70.1504 42.75 73.065 42.75 76.6604C42.75 80.2558 45.6646 83.1704 49.26 83.1704Z" fill="#F91A2B" stroke="#F91A2B" stroke-width="4" stroke-miterlimit="10" stroke-linecap="round" stroke-linejoin="round"/>
<path d="M51.7889 77.5009C52.6389 77.0309 53.0889 76.2509 53.0889 75.1509C53.0889 73.3609 52.0489 72.4609 49.9789 72.4609C49.6389 72.4609 49.1889 72.4609 48.6389 72.4709C48.0889 72.4809 47.5789 72.4809 47.1289 72.4809V80.8809H49.0489V77.9409H49.5989C50.0889 77.9409 51.0589 77.8609 51.7889 77.5009ZM49.0389 74.2909C49.1889 74.2909 49.3389 74.2909 49.4689 74.2809C49.6089 74.2809 49.7089 74.2709 49.7689 74.2709C49.8289 74.2709 49.8689 74.2609 49.8789 74.2609C50.6589 74.2609 51.0389 74.5609 51.0389 75.1709C51.0389 75.8209 50.5989 76.1409 49.7289 76.1409H49.0289V74.2909H49.0389Z" fill="white"/>
</svg>
