<svg width="69" height="98" viewBox="0 0 69 98" fill="none" xmlns="http://www.w3.org/2000/svg">
<path d="M41.75 86.3605H7V7.48047H61.19" stroke="#393C4C" stroke-miterlimit="10" stroke-linecap="round" stroke-linejoin="round"/>
<path d="M61.1883 7.48047V86.3605H57.4883" stroke="#393C4C" stroke-miterlimit="10" stroke-linecap="round" stroke-linejoin="round"/>
<path d="M57.95 92.2498H67.19V1.58984H1V92.2498H41.29" stroke="#393C4C" stroke-width="2" stroke-miterlimit="10" stroke-linecap="round" stroke-linejoin="round"/>
<path d="M53.5072 96.0406L49.4372 92.7106L45.3672 96.0406V80.8906H53.5072V96.0406Z" fill="#F91A2B" stroke="#F91A2B" stroke-width="2" stroke-miterlimit="10" stroke-linecap="round" stroke-linejoin="round"/>
<path d="M49.2597 85.2401C53.9983 85.2401 57.8397 81.3987 57.8397 76.6601C57.8397 71.9215 53.9983 68.0801 49.2597 68.0801C44.5211 68.0801 40.6797 71.9215 40.6797 76.6601C40.6797 81.3987 44.5211 85.2401 49.2597 85.2401Z" fill="white" stroke="white" stroke-width="4" stroke-miterlimit="10"/>
<path d="M21.9297 50.0391H46.2497" stroke="#393C4C" stroke-width="2" stroke-miterlimit="10" stroke-linecap="round" stroke-linejoin="round"/>
<path d="M54.0981 59.8789H14.0781" stroke="#393C4C" stroke-miterlimit="10" stroke-linecap="round" stroke-linejoin="round"/>
<path d="M29.1881 77.8906H14.0781" stroke="#393C4C" stroke-miterlimit="10" stroke-linecap="round" stroke-linejoin="round"/>
<path d="M54.0981 55.4395H14.0781" stroke="#393C4C" stroke-miterlimit="10" stroke-linecap="round" stroke-linejoin="round"/>
<path d="M54.0981 64.3291H14.0781" stroke="#393C4C" stroke-miterlimit="10" stroke-linecap="round" stroke-linejoin="round"/>
<path d="M13.748 74.391C13.748 74.391 13.478 71.601 15.338 72.311C17.198 73.021 17.968 74.661 19.278 73.291C20.588 71.921 21.798 73.461 23.438 73.791C25.078 74.121 25.408 72.301 26.998 73.291C28.588 74.281 29.518 74.391 29.518 74.391" stroke="#393C4C" stroke-miterlimit="10" stroke-linecap="round" stroke-linejoin="round"/>
<path d="M49.26 83.1704C52.8554 83.1704 55.77 80.2558 55.77 76.6604C55.77 73.065 52.8554 70.1504 49.26 70.1504C45.6646 70.1504 42.75 73.065 42.75 76.6604C42.75 80.2558 45.6646 83.1704 49.26 83.1704Z" fill="#F91A2B" stroke="#F91A2B" stroke-width="4" stroke-miterlimit="10" stroke-linecap="round" stroke-linejoin="round"/>
<path d="M51.3475 77.5009C52.1975 77.0309 52.6475 76.2509 52.6475 75.1509C52.6475 73.3609 51.6075 72.4609 49.5375 72.4609C49.1975 72.4609 48.7475 72.4609 48.1975 72.4709C47.6475 72.4809 47.1375 72.4809 46.6875 72.4809V80.8809H48.6075V77.9409H49.1575C49.6475 77.9409 50.6175 77.8609 51.3475 77.5009ZM48.5975 74.2909C48.7475 74.2909 48.8975 74.2909 49.0275 74.2809C49.1675 74.2809 49.2675 74.2709 49.3275 74.2709C49.3875 74.2709 49.4275 74.2609 49.4375 74.2609C50.2175 74.2609 50.5975 74.5609 50.5975 75.1709C50.5975 75.8209 50.1575 76.1409 49.2875 76.1409H48.5875V74.2909H48.5975Z" fill="white"/>
<path d="M30.4102 16.9196L32.8402 15.3096H36.4302L38.8602 16.9196V43.6296H30.4102V16.9196Z" stroke="#393C4C" stroke-width="1.5" stroke-miterlimit="10" stroke-linecap="round" stroke-linejoin="round"/>
<path d="M35.2241 17.6386V15.3086H34.0441V17.6386H35.2241Z" stroke="#393C4C" stroke-width="1.5" stroke-miterlimit="10" stroke-linecap="round" stroke-linejoin="round"/>
<path d="M34.6403 20.3798C34.9703 20.3798 35.2303 20.1398 35.2303 19.8398C35.2303 19.5398 34.9703 19.2998 34.6403 19.2998C34.3103 19.2998 34.0503 19.5398 34.0503 19.8398C34.0503 20.1398 34.3103 20.3798 34.6403 20.3798Z" stroke="#393C4C" stroke-width="1.5" stroke-miterlimit="10" stroke-linecap="round" stroke-linejoin="round"/>
<path d="M30.4102 22.7393H38.8602" stroke="#393C4C" stroke-width="1.5" stroke-miterlimit="10" stroke-linecap="round" stroke-linejoin="round"/>
<path d="M30.4102 38.4194H38.8602" stroke="#393C4C" stroke-width="1.5" stroke-miterlimit="10" stroke-linecap="round" stroke-linejoin="round"/>
<path d="M32.71 39.2695V40.8795L33.32 41.4495V43.6195" stroke="#393C4C" stroke-width="1.5" stroke-miterlimit="10" stroke-linecap="round" stroke-linejoin="round"/>
<path d="M36.56 39.2695V40.8795L35.96 41.4495V43.6195" stroke="#393C4C" stroke-width="1.5" stroke-miterlimit="10" stroke-linecap="round" stroke-linejoin="round"/>
</svg>
