<svg width="406" height="167" viewBox="0 0 406 167" fill="none" xmlns="http://www.w3.org/2000/svg">
<path d="M73.4 146.81V116.61H5L0 94.81L76.8 5.81003H102.8V91.61H121.6V116.61H102.8V146.81H73.4ZM36.2 91.61H73.4V48.01L36.2 91.61Z" fill="#393C4C"/>
<path d="M357.384 146.81V116.61H288.984L283.984 94.81L360.784 5.81003H386.784V91.61H405.584V116.61H386.784V146.81H357.384ZM320.184 91.61H357.384V48.01L320.184 91.61Z" fill="#393C4C"/>
<path d="M249.49 126.01C237.89 139.743 222.89 146.61 204.49 146.61C186.09 146.61 171.157 139.743 159.69 126.01C148.224 112.277 142.49 95.01 142.49 74.21C142.49 53.5434 148.29 36.3434 159.89 22.61C171.49 8.74336 186.49 1.81003 204.89 1.81003C223.157 1.81003 238.024 8.67669 249.49 22.41C261.09 36.1434 266.89 53.41 266.89 74.21C266.89 94.8767 261.09 112.143 249.49 126.01ZM182.49 106.21C188.224 114.61 195.69 118.81 204.89 118.81C214.09 118.81 221.424 114.677 226.89 106.41C232.49 98.01 235.29 87.2767 235.29 74.21C235.29 61.41 232.424 50.81 226.69 42.41C220.957 33.8767 213.557 29.61 204.49 29.61C195.424 29.61 188.09 33.81 182.49 42.21C176.89 50.4767 174.09 61.1434 174.09 74.21C174.09 87.1434 176.89 97.81 182.49 106.21Z" fill="#24BDFF"/>
<path d="M200.788 9.18488L204.892 5.94318L203.739 3.34914L205.667 0.89547L208.578 1.67541L206.757 4.15796L208.127 6.80977L204.467 9.2565L207.904 11.0914L202.493 14.897L204.636 16.3852L201.839 19.063L212.2 28.6939L202.355 36.1097L200.124 33.2268L204.698 27.3691L197.241 18.9735L199.88 16.0247L198.498 14.2834L202.488 11.4681L200.788 9.18488Z" fill="white"/>
<path d="M209.8 122.31L203.619 120.753L204.773 118.159L202.844 115.706L199.933 116.485L201.754 118.968L199.8 121.81L204.773 123.31L200.608 125.901L207.299 127.31L202.844 130.835L204.773 134.512L197.8 141.31L206.156 150.92L208.388 148.037L203.814 142.179L211.27 133.784L208.631 130.835L213.799 125.31L206.8 124.81L209.8 122.31Z" fill="white"/>
<path d="M223.519 150.776L217.388 152.519L217.09 149.695L214.193 148.535L212.063 150.665L214.881 151.905L214.609 155.343L219.666 154.156L217.355 158.483L226.798 155.581L228.483 151.375L222.171 154.441L223.519 150.776Z" fill="#24BDFF"/>
<path d="M187.872 151.423L191.32 153.377L193.97 152.358L194.341 149.26L191.731 147.753L191.263 150.796L187.872 151.423Z" fill="#24BDFF"/>
<path d="M180.8 158.31L187.3 155.81L190.3 160.81H182.3L180.8 158.31Z" fill="#24BDFF"/>
<path d="M212.8 163.258L216.212 162.478L219.693 164.247L213.956 166.071L212.8 163.258Z" fill="#24BDFF"/>
<path d="M208.8 156.757L213.484 157.319L213.322 159.114L211.916 159.266L208.8 156.757Z" fill="#24BDFF"/>
<path d="M202.005 155.151L200.716 153.949L201.16 153.443L201.618 153.707L202.005 155.151Z" fill="#24BDFF"/>
<path d="M195.536 157.896L193.773 157.958L193.73 157.285L195.536 156.81L195.536 157.896Z" fill="#24BDFF"/>
<path d="M197.803 160.063L196.168 160.722L195.898 160.104L197.433 159.042L197.803 160.063Z" fill="#24BDFF"/>
<path d="M215.696 160.713L214.158 161.039L213.862 160.627L215.279 160.036L215.696 160.713Z" fill="#24BDFF"/>
<path d="M177.257 155.764L177.039 157.321L176.551 157.459L176.478 155.926L177.257 155.764Z" fill="#24BDFF"/>
<path d="M198.769 163.694L201.321 162.22L205.831 161.926L200.726 164.873L198.769 163.694Z" fill="#24BDFF"/>
</svg>
