<svg version="1.0" xmlns="http://www.w3.org/2000/svg" width="1749.333" height="1749.333" viewBox="0 0 1312 1312"><path d="M401 379c-10.4 2.7-16.7 6.9-24.1 16-8.7 10.7-12 22.5-11.5 40.5.7 24.7 9.1 38 30.6 48.3 4.1 2 8 3.7 8.5 3.8 4.3 1 24 8.1 28.3 10.2 10.4 5.1 17.3 13.3 18.8 22.3 3.1 18.9-3.3 33.9-17.4 40.9-3.7 1.9-6.5 2.4-13.6 2.6-4.9.1-10.5-.3-12.4-.8-1.9-.5-4.3-1.1-5.3-1.3-6.8-1.3-17.9-9.1-27.5-19.3l-6.2-6.5-2.4 3.9c-1.4 2.1-3.7 5.9-5.2 8.3l-2.8 4.3 2.9 3.1c13.1 14.3 25 22.3 39.8 26.8 7.5 2.4 22.1 3 28.3 1.2 2.3-.7 4.2-1 4.2-.7 0 .3 3.1-1.1 6.8-3.1 7-3.6 17.2-12.2 17.2-14.3 0-.7.4-1.2.8-1.2 1 0 5.6-9.1 7.5-15.1 3.6-10.7 3.9-28.2.8-39.9-3.9-14.2-13.8-25.5-28.8-32.5-5.5-2.7-21-8.3-24.5-9-1-.2-5.6-2.2-10.4-4.5-11.2-5.3-17.3-11.3-19.8-19.4-1.7-5.3-2.4-16.7-1.3-20.6.2-.8.8-2.9 1.2-4.5 2.5-9.2 13.1-18.6 22.6-20.1 15.9-2.5 31.8 3.7 45.9 17.7 1.7 1.7 3.2 3 3.4 2.8 1-1.4 5.2-8.7 7.1-12.5l2.3-4.6-3.1-3.2c-7.5-7.6-20.6-16-28.2-18.1-1.6-.4-3.4-.9-4-1.1-8.3-2.4-20.5-2.5-28.5-.4zm148.8.6c-.4.3-11.1.6-23.8.6h-23v100.4c0 55.2.3 100.5.8 100.5 2.5.4 106.2.3 106.3-.1.6-2.7.2-19.3-.4-19.7-.5-.3-20.9-.5-45.3-.5-33 0-44.4-.3-44.5-1.1 0-.7-.1-16.5-.2-35.2l-.2-34.1 39.3.1c21.7 0 39.8-.3 40.3-.6.9-.5 1-1.8.8-12.6-.1-2.8.2-5.6.5-6.1.3-.6 0-1.2-.7-1.4-.6-.2-18.9-.4-40.4-.3-21.6 0-39.3-.2-39.4-.5-.5-3.3-.2-67.3.3-67.6.4-.2 20.5-.5 44.7-.5 32.2-.1 44.1-.4 44.3-1.3.4-1 .3-12.9-.1-17.8-.1-1.4-.9-1.8-3.3-1.7-1.8.1-5.5.1-8.3 0-2.7-.1-14.3 0-25.8.1-11.4.2-20.8-.1-21-.5-.1-.5-.5-.5-.9-.1zm350.4.3l-3.3.6 12.9 25.7c7.1 14.2 12.7 25.8 12.3 25.8-.3 0-.1.4.5.8s8.7 16.1 18.1 34.8l17 34.2.1 38.8c0 21.4.1 39.4.1 39.9.1.6 3.5 1 8.4 1h8.2l.1-40 .1-40 2.8-5.5c1.6-3 2.9-5.7 3-6 .1-.3 2.3-4.8 4.9-10 19.7-38.7 49.6-98.4 49.6-99 0-.9-4.7-1.9-5.5-1.2-.3.3-3.5.5-7 .5-5-.1-6.5.2-6.5 1.3 0 .8-.4 1.4-1 1.4-.5 0-1 .4-1 1 0 1.2-47 96-47.6 96-.4 0-20.8-40.9-20.9-42 0-.3-.7-1.6-1.5-3-1.6-2.7-6.3-12.2-6.5-13 0-.3-.9-2.1-2-4s-2-3.7-2-4c0-.3-3.8-8-8.4-17.2l-8.3-16.8-5.7.2c-3.1.1-6.1 0-6.6-.3-.6-.3-2.5-.3-4.3 0zm-255.8 1.2c-.8 1.4-.8 198.8.1 199.7.4.4 22.7.7 49.6.7H743l.1-2.5c.2-4.3-.2-17.4-.6-18-.2-.3-18.6-.5-40.9-.5-27 0-40.6-.3-40.7-1-.1-.5-.2-41.1-.3-90l-.1-89-7.7-.2c-4.6-.2-8 .2-8.4.8zm129.8 99.7l.3 100.7h16V494l3-.1c1.6 0 19.3 0 39.3-.1 22.9 0 36.4-.4 36.8-1 .5-.8.8-10.7.5-18.1-.1-1.6-2.7-1.7-39.6-1.7-21.7 0-39.6-.3-39.6-.8-.4-2.1-.5-68.9-.1-69.9.2-.8 11.2-1.1 42-1.2h44.3l2.6-.1-.1-10.3-.1-10.2-52.8-.2-52.7-.1.2 100.6zm317.4-21.1c-.3.3-.6 16.1-.6 35V529l9.3.1c9.6 0 26.7 0 30.2-.1 2 0 2-.6 2-33.8.1-21.5-.3-34-.9-34.4-.6-.4-5.8-.7-11.7-.6-5.9 0-11.2-.2-11.8-.6-.6-.4-1.1-.4-1.1.1 0 .9-12.2.9-13.7 0-.6-.4-1.3-.4-1.7 0zm-824.2 42.8c-.2.5-.3 95.5-.2 211l.3 209.9 19 .1c10.5 0 19.5-.1 20-.2.8-.3 1.1-26.4 1-83.6-.1-90.2-.3-86 5.2-92.4 1-1.1 3.4-4.1 5.3-6.4 5.3-6.6 18.2-18.9 19.7-18.9.7 0 1.3-.5 1.3-1 0-.6 1-1.5 2.3-2 2.4-1.1 5.9-3.2 6.7-4 1.3-1.5 15.6-7.1 21.7-8.5 6.5-1.6 24-2.3 29.3-1.2 1.4.3 4.3.8 6.5 1.2 2.2.4 4.6 1.2 5.3 1.8.6.5 1.2.7 1.2.4 0-1 9.4 3.5 14.4 7 11.1 7.6 19.6 20.3 23.2 34.8.4 1.6.8 3.2.9 3.5 1.3 4.1 1.8 30.7 1.8 93.5v76l19.1-.1c10.5-.1 19.7-.2 20.4-.3 1.1-.1 1.2-15.9.9-85.4-.1-46.8-.6-86.3-1-87.7-.4-1.4-1-4-1.3-5.9-.3-1.9-1.5-6.4-2.7-10-1.1-3.6-2.1-6.8-2.2-7.1-.2-1.3-7.2-14.9-9-17.7-16.5-24.2-41.9-39.5-71.5-42.8-5.3-.6-24.8-.7-26.8-.1-.9.3-3.5.7-5.7 1.1-11.4 1.7-29.1 8.2-36.6 13.6-1.6 1.1-2.9 1.7-2.9 1.2 0-.4-.4-.3-.8.2-.4.6-3.6 3.1-7.2 5.7-3.6 2.5-8.7 6.8-11.4 9.6-2.8 2.8-5.2 4.9-5.5 4.7-.3-.2-.6-45-.5-99.7 0-54.6-.1-99.8-.3-100.3-.5-1.4-39.4-1.4-39.9 0zm825.3 54.3c-1.6.3-1.7 3.2-1.7 34.8V626l20.8-.2 20.7-.1V557l-3-.1c-10.2-.3-35.4-.3-36.8-.1zm-1.3 97.7c-.2.5-.3 16.1-.2 34.5l.3 33.5 19.5.1c10.7 0 20-.1 20.5-.3.7-.2 1-12.4 1-34.6v-34.2h-20.4c-13.2-.1-20.5.3-20.7 1zm167.4 13c-6.7 7.7-13.2 15.3-14.7 17-2.5 2.9-11.6 13.6-15.6 18.4-1.1 1.3-3.8 4.5-6 7-2.2 2.6-5.8 6.9-8 9.5-2.2 2.7-4.5 5.4-5.1 6-.5.6-4.8 5.6-9.4 11.1-4.6 5.5-8.7 10.2-9 10.5-.3.3-3 3.4-6 7s-6.2 7.4-7.2 8.5c-3.3 3.8-16.2 19-17.7 20.9-.9 1-2.8 3.3-4.3 5l-2.6 3.2 7.5 7.9c20.8 22 34.6 36.6 41.8 44.3 4.4 4.7 10 10.6 12.5 13.2 2.5 2.6 9.9 10.5 16.5 17.5s14.3 15.1 17 18c2.8 2.8 8.8 9.2 13.5 14.2l8.5 9.1h20.7l20.8-.1-.2-131.1-.3-131.1h-20.4l-20.3-.1-12 14.1zm-1133.1-1.9c-.1.1-3.3.4-7.2.7-3.8.4-9.5 1.1-12.5 1.7-3 .6-6.6 1.3-8 1.6-1.4.3-7 2.1-12.5 4s-10.4 3.5-11 3.7c-.5.1-1.2.4-1.5.7-.3.3-2.3 1.4-4.5 2.5-27.6 13.6-48.3 36.3-59.4 65.3-2.4 5.9-5.7 18.4-6.6 24-.3 2.1-.8 4.9-1.1 6.2-1 4-1.3 35-.4 41 .4 3 1.1 7.5 1.5 10 1.1 7.4 4.8 20.7 7.4 26.5 5 11.1 6.9 14.5 12 22.2 10 14.9 25.1 28.6 40.7 36.8 3.8 2 7.5 4.1 8.1 4.7.7.6 1.3.7 1.3.3 0-.4.6-.3 1.3.3 3.4 2.9 27.6 9.5 40.2 11 13.2 1.5 43 .2 54.5-2.4 1.4-.3 3.9-.8 5.5-1.1 4.5-.7 25.3-7.7 31-10.5l5-2.3v-20.8c.1-20.4 0-20.7-2-20.1-1.1.4-2.2 1-2.5 1.5-1.9 2.9-32.7 14-43 15.4-11.3 1.6-16 2-26 1.9-13.9 0-24.6-1.4-32-4.1-.8-.3-2.4-.8-3.5-1-3.7-.7-19-8.5-24.5-12.6-15.8-11.5-27-28.2-32-47.6-2.5-10.1-3.2-16.4-3.2-29.2.1-10.7 3.3-30.1 5.4-32.6.6-.7.8-1.3.5-1.3-1.2 0 4.6-11.6 8.8-18 17.5-26 46.7-39.7 84-39.3 22 .3 43.4 6.3 59.6 17 3.7 2.3 6.9 4.3 7.3 4.3.3 0 .6-9 .6-20v-20l-3.7-2.3c-18.5-11.3-42.2-17.4-71.2-18-3.4-.1-6.3-.1-6.4-.1zm539 0c-.1.1-2.9.4-6.2.7-13 1.1-31.4 6.3-41.5 11.6-16.2 8.5-29.5 19.1-40 31.6-14.1 16.9-25.2 44.1-27.7 68.5-1.1 10.3-.5 45.5.7 45.5.1 0 .3 1.1.4 2.5.8 8.3 6.1 24.9 11.3 35.5 8.4 17.1 18.8 29.7 34.8 42.3 2.8 2.1 14.6 9.1 19.5 11.4 10.8 5.2 25.5 10 34.5 11.3 1.7.3 4.1.7 5.5 1 13 2.9 40.4 2.5 65.5-.9 15.9-2.1 47.3-12.7 47.6-16 .4-3.9.3-37.9-.1-38.6-.3-.5-3.7.6-7.5 2.5-11.3 5.3-13.6 6.2-23 9-18.9 5.5-29.5 7-50 6.9-13.6 0-26-1-28-2.2-.5-.4-1.9-.7-3-.8-3.7-.3-13.9-3.6-22-7.2-24.1-10.7-39.5-29.1-45.1-54-2.1-9.2-1.6-10.4 3.8-10.2 2.4.1 4.8.1 5.3 0 .6-.1 1.4-.2 2 0 3 .6 10.5.4 10.5-.3 0-.5.5-.5 1-.2 1.3.8 16.5.9 17.7.2.5-.3 1.5-.2 2.2.3.8.4 2.5.5 4 .1 1.4-.5 3.8-.5 5.2-.1 1.5.4 3.2.4 3.9 0 .8-.5 2.3-.5 3.4 0 1.2.4 3 .4 4 0 1.1-.3 3.7-.3 5.8 0 2.1.4 4.1.4 4.4-.1.2-.4 1.4-.5 2.6 0 1.1.4 4 .4 6.4.1 2.4-.4 4.4-.4 4.4-.1 0 .3 4.1.6 9 .6 5 0 9-.3 9-.6 0-.4 1.6-.3 3.5.1s3.7.4 4 0c.3-.5 1.8-.5 3.4 0 1.5.4 3.4.4 4.1 0 .7-.5 2.3-.5 3.4 0 1.2.4 3 .4 4 0 1.1-.3 3.7-.3 5.8 0 2.1.4 4.1.4 4.4-.1.2-.4 1.1-.6 1.9-.3 2.3.9 10.5 1 10.5.1 0-.5.5-.5 1-.2 1.3.8 16.5.9 17.7.2.5-.3 1.5-.2 2.2.3.8.4 2.7.4 4.2 0 1.6-.5 4.1-.5 5.7-.1 1.5.5 3.7.5 4.9 0 1.2-.4 2.5-.4 2.8.1.7 1.1 4.5 0 4.6-1.4 0-.6.2-2 .4-3.1 3.1-15.5 2.6-44.5-1-60-1.6-7-6.1-20.4-7.5-22-.4-.5-.9-1.5-1-2-1-5-11.6-20.8-19.3-28.6-8.4-8.5-11-10.7-18.9-15.7-10.4-6.5-27.6-13.3-37.1-14.6-1.8-.3-4.2-.7-5.5-1-4.2-.9-27.9-2.5-28.5-2zm21.8 39.8c30 3.9 52.2 23.8 59.1 52.7.3 1.3.8 6.6 1 11.6.3 6.9 0 9.3-.9 9.4-.6 0-36.2.1-79 .2l-77.8.2.5-5c.8-7.2 1.7-11.7 2.7-13.8.5-.9.8-1.7.5-1.7-1.4 0 6.4-16.1 10.9-22.3 5.1-7.2 20-20.4 22.5-20 .3 0 1.6-.7 3-1.6 3.2-2.2 11.2-5.6 16.8-7.1 4.3-1.1 7.2-1.6 14.7-2.7 2.2-.3 4.1-.6 4.2-.7.5-.4 17 .2 21.8.8zm260.8-39.2c-7.7.6-10.7 1-17.8 2.3-9 1.7-22.9 6.3-32 10.5-6.2 3-19.2 10.5-20.5 12-.3.3-2.1 1.7-4 3.1-5 3.8-14.9 13.6-19.5 19.4-2.2 2.7-4.3 5.2-4.6 5.5-.3.3-.8 1.2-1.2 2-.4.8-1.8 3.3-3.2 5.5-5.3 8.4-13.4 29.1-15 38.5-3.2 18.1-4 47.5-1.6 58.3.6 2.6 1.3 6.2 1.6 8 .8 6 7.4 26 8.7 26.5.4.2.8 1 .8 1.8 0 .7 2 4.8 4.6 9 6.2 10.7 12.8 19 20.8 26.3 2.2 2 4.7 4.3 5.6 5.2 6.3 6 27.4 17.7 38.5 21.4 8.5 2.8 15.2 4.6 18.9 5.1 2.2.3 4.3.7 4.8 1 3.6 2.2 43 2.3 54.3.1 1.1-.3 3.8-.8 6-1.2 8.6-1.6 9.3-1.7 15.5-3.4 6.8-1.9 12.8-4.1 20.6-7.6l7.1-3.3v-20.6c.1-11.4-.2-20.5-.6-20.4-15.9 8-28.2 13.1-34.1 14.3-.8.2-3.4.8-5.8 1.4-2.4.7-5.7 1.4-7.5 1.6-1.8.3-4.3.7-5.7 1.1-1.4.3-9.1.7-17.2.9-15.5.2-25-1.1-38.8-5.6-26.1-8.6-46.2-28.8-54.3-54.5-3.4-10.8-3.9-14.4-4.3-31.4-.5-25.4 5.2-44.4 18.4-60.8 23-28.8 66.4-40.5 109.5-29.6 13 3.3 28.5 10.6 35.5 16.8 1.7 1.5 2.2 1.6 2.3.5 0-.8.1-9.9.2-20.3l.2-18.8-2.5-2c-5.1-4.1-24.4-12.3-33-14.2-20.9-4.5-34.8-5.7-50.7-4.4zM1091 784.5V819h2.8c17.1.3 37.5 0 38.1-.5.3-.4.6-15.9.6-34.4v-33.8l-20.7-.2-20.8-.1v34.5zm5.3 62.3l-5.3.3v68.8l20.7-.2 20.8-.2V847l-5.5-.1c-3 0-10-.1-15.5-.2s-12.4-.1-15.2.1z"/></svg>