<svg width="100" height="100" viewBox="0 0 100 100" fill="none" xmlns="http://www.w3.org/2000/svg">
<path d="M73.27 65.7198V23.2098C73.27 19.5098 76.27 16.5098 79.97 16.5098C83.67 16.5098 86.67 19.5098 86.67 23.2098V34.5098L73.27 34.4798" stroke="#393C4C" stroke-width="2" stroke-miterlimit="10" stroke-linecap="round" stroke-linejoin="round"/>
<path d="M22.9102 68.3998V23.2098C22.9102 19.5098 25.9102 16.5098 29.6102 16.5098H79.9702" stroke="#393C4C" stroke-width="2" stroke-miterlimit="10" stroke-linecap="round" stroke-linejoin="round"/>
<path d="M63.5 84.67H21.77C16.38 84.67 12 80.3 12 74.9V68.4H53.73V74.91C53.74 80.3 58.11 84.67 63.5 84.67ZM63.5 84.67C68.89 84.67 73.27 80.3 73.27 74.9V60.98" stroke="#393C4C" stroke-width="2" stroke-miterlimit="10" stroke-linecap="round" stroke-linejoin="round"/>
<path d="M46.4697 31.9399C46.4697 29.8699 44.7897 28.1899 42.7197 28.1899H32.9097C30.8397 28.1899 29.1597 29.8699 29.1597 31.9399V51.1699C29.1597 51.1899 29.1597 51.1999 29.1597 51.2199C29.1597 51.2399 29.1597 51.2499 29.1597 51.2699C29.1597 55.6699 33.0397 59.2399 37.8197 59.2399C42.5997 59.2399 46.4797 55.6699 46.4797 51.2699C46.4797 51.2499 46.4797 51.2399 46.4797 51.2199C46.4797 51.1999 46.4797 51.1899 46.4797 51.1699V31.9399H46.4697Z" stroke="#393C4C" stroke-width="1.5" stroke-miterlimit="10" stroke-linecap="round" stroke-linejoin="round"/>
<path d="M29.1499 34.3501H46.4699" stroke="#393C4C" stroke-width="1.5" stroke-miterlimit="10" stroke-linecap="round" stroke-linejoin="round"/>
<path d="M29.1499 47.3799H46.4699" stroke="#393C4C" stroke-width="1.5" stroke-miterlimit="10" stroke-linecap="round" stroke-linejoin="round"/>
<path d="M29.73 52.1997H45.51" stroke="#393C4C" stroke-width="1.5" stroke-miterlimit="10" stroke-linecap="round" stroke-linejoin="round"/>
<path d="M32.3901 56.9797L35.4801 52.1997" stroke="#393C4C" stroke-width="1.5" stroke-miterlimit="10" stroke-linecap="round" stroke-linejoin="round"/>
<path d="M42.9504 56.9797L39.8604 52.1997" stroke="#393C4C" stroke-width="1.5" stroke-miterlimit="10" stroke-linecap="round" stroke-linejoin="round"/>
<path d="M40.2401 29.1799C39.8801 29.7399 38.9201 30.1399 37.8001 30.1399C36.6401 30.1399 35.6601 29.7099 35.3301 29.1299" stroke="#393C4C" stroke-width="1.5" stroke-miterlimit="10" stroke-linecap="round" stroke-linejoin="round"/>
<path d="M53.7998 29.1299H65.6198" stroke="#F91A2B" stroke-width="4" stroke-miterlimit="10" stroke-linecap="round" stroke-linejoin="round"/>
<path d="M52.7998 40.1299H66.6198" stroke="#393C4C" stroke-width="2" stroke-miterlimit="10" stroke-linecap="round" stroke-linejoin="round"/>
<path d="M52.7998 44.9297H66.6198" stroke="#393C4C" stroke-width="2" stroke-miterlimit="10" stroke-linecap="round" stroke-linejoin="round"/>
<path d="M52.7998 49.73H66.6198" stroke="#393C4C" stroke-width="2" stroke-miterlimit="10" stroke-linecap="round" stroke-linejoin="round"/>
<path d="M52.7998 54.5298H66.6198" stroke="#393C4C" stroke-width="2" stroke-miterlimit="10" stroke-linecap="round" stroke-linejoin="round"/>
</svg>
