<svg width="100" height="100" viewBox="0 0 100 100" fill="none" xmlns="http://www.w3.org/2000/svg">
<path d="M36.7798 23.2798H39.3998L40.1898 26.5598L40.3798 31.7798C40.3798 31.7798 39.6898 34.1398 40.3998 37.5598V39.6998L39.9198 54.3398L39.6598 58.1098L39.9198 63.8098H36.7798" stroke="#393C4C" stroke-width="1.5" stroke-miterlimit="10" stroke-linecap="round" stroke-linejoin="round"/>
<path d="M36.87 23.2798H34.25L33.46 26.5598L33.27 31.7798C33.27 31.7798 33.96 34.1398 33.25 37.5598V39.6998L33.73 54.3398L33.99 58.1098L33.73 63.8098H36.87" stroke="#393C4C" stroke-width="1.5" stroke-miterlimit="10" stroke-linecap="round" stroke-linejoin="round"/>
<path d="M39.5298 58.0298H34.0898" stroke="#393C4C" stroke-miterlimit="10" stroke-linecap="round" stroke-linejoin="round"/>
<path d="M40.2499 31.75H33.3999" stroke="#393C4C" stroke-miterlimit="10" stroke-linecap="round" stroke-linejoin="round"/>
<path d="M39.6001 47.8299L37.9801 47.5499V44.8399C37.9801 44.2099 37.4601 43.6899 36.8301 43.6899C36.2001 43.6899 35.6801 44.2099 35.6801 44.8399V47.5499L34.0601 47.8399" stroke="#393C4C" stroke-miterlimit="10" stroke-linecap="round" stroke-linejoin="round"/>
<path d="M33.4702 39.1899H35.5402L36.8302 37.8999L38.1202 39.1899H40.1902" stroke="#393C4C" stroke-miterlimit="10" stroke-linecap="round" stroke-linejoin="round"/>
<path d="M36.8202 33.4399C36.8202 33.4399 37.6702 34.3999 37.6702 34.9699C37.6702 35.4399 37.2902 35.8199 36.8202 35.8199C36.3502 35.8199 35.9702 35.4399 35.9702 34.9699C35.9802 34.4199 36.8202 33.4399 36.8202 33.4399Z" fill="#393C4C"/>
<path d="M36.8202 29.5299C37.0102 29.5299 37.1702 29.3699 37.1702 29.1799V26.2299C37.1702 26.0399 37.0102 25.8799 36.8202 25.8799C36.6302 25.8799 36.4702 26.0399 36.4702 26.2299V29.1799C36.4702 29.3799 36.6302 29.5299 36.8202 29.5299Z" fill="#393C4C"/>
<path d="M38.2401 29.5299C38.4301 29.5299 38.5901 29.3699 38.5901 29.1799V26.2299C38.5901 26.0399 38.4301 25.8799 38.2401 25.8799C38.0501 25.8799 37.8901 26.0399 37.8901 26.2299V29.1799C37.8901 29.3799 38.0401 29.5299 38.2401 29.5299Z" fill="#393C4C"/>
<path d="M35.4101 29.5299C35.6001 29.5299 35.7601 29.3699 35.7601 29.1799V26.2299C35.7601 26.0399 35.6001 25.8799 35.4101 25.8799C35.2201 25.8799 35.0601 26.0399 35.0601 26.2299V29.1799C35.0601 29.3799 35.2201 29.5299 35.4101 29.5299Z" fill="#393C4C"/>
<path d="M50 40.1299H66.62" stroke="#393C4C" stroke-width="2" stroke-miterlimit="10" stroke-linecap="round" stroke-linejoin="round"/>
<path d="M50 44.9297H66.62" stroke="#393C4C" stroke-width="2" stroke-miterlimit="10" stroke-linecap="round" stroke-linejoin="round"/>
<path d="M50 49.73H66.62" stroke="#393C4C" stroke-width="2" stroke-miterlimit="10" stroke-linecap="round" stroke-linejoin="round"/>
<path d="M50 54.5298H66.62" stroke="#393C4C" stroke-width="2" stroke-miterlimit="10" stroke-linecap="round" stroke-linejoin="round"/>
<path d="M73.27 65.7198V23.2098C73.27 19.5098 76.27 16.5098 79.97 16.5098C83.67 16.5098 86.67 19.5098 86.67 23.2098V34.5098L73.27 34.4798" stroke="#393C4C" stroke-width="2" stroke-miterlimit="10" stroke-linecap="round" stroke-linejoin="round"/>
<path d="M22.9102 68.3998V23.2098C22.9102 19.5098 25.9102 16.5098 29.6102 16.5098H79.9702" stroke="#393C4C" stroke-width="2" stroke-miterlimit="10" stroke-linecap="round" stroke-linejoin="round"/>
<path d="M63.5 84.67H21.77C16.38 84.67 12 80.3 12 74.9V68.4H53.73V74.91C53.74 80.3 58.11 84.67 63.5 84.67ZM63.5 84.67C68.89 84.67 73.27 80.3 73.27 74.9V60.98" stroke="#393C4C" stroke-width="2" stroke-miterlimit="10" stroke-linecap="round" stroke-linejoin="round"/>
<path d="M50.7998 29.1299H65.6198" stroke="#F91A2B" stroke-width="4" stroke-miterlimit="10" stroke-linecap="round" stroke-linejoin="round"/>
</svg>
