<?xml version="1.0" standalone="no"?>
<!DOCTYPE svg PUBLIC "-//W3C//DTD SVG 20010904//EN"
 "http://www.w3.org/TR/2001/REC-SVG-20010904/DTD/svg10.dtd">
<svg version="1.0" xmlns="http://www.w3.org/2000/svg"
 width="1312.000000pt" height="1312.000000pt" viewBox="0 0 1312.000000 1312.000000"
 preserveAspectRatio="xMidYMid meet">
<metadata>
Created by potrace 1.11, written by Peter Selinger 2001-2013
</metadata>
<g transform="translate(0.000000,1312.000000) scale(0.100000,-0.100000)"
fill="#000000" stroke="none">
<path d="M4010 9330 c-104 -27 -167 -69 -241 -160 -87 -107 -120 -225 -115
-405 7 -247 91 -380 306 -483 41 -20 80 -37 85 -38 43 -10 240 -81 283 -102
104 -51 173 -133 188 -223 31 -189 -33 -339 -174 -409 -37 -19 -65 -24 -136
-26 -49 -1 -105 3 -124 8 -19 5 -43 11 -53 13 -68 13 -179 91 -275 193 l-62
65 -24 -39 c-14 -21 -37 -59 -52 -83 l-28 -43 29 -31 c131 -143 250 -223 398
-268 75 -24 221 -30 283 -12 23 7 42 10 42 7 0 -3 31 11 68 31 70 36 172 122
172 143 0 7 4 12 8 12 10 0 56 91 75 151 36 107 39 282 8 399 -39 142 -138
255 -288 325 -55 27 -210 83 -245 90 -10 2 -56 22 -104 45 -112 53 -173 113
-198 194 -17 53 -24 167 -13 206 2 8 8 29 12 45 25 92 131 186 226 201 159 25
318 -37 459 -177 17 -17 32 -30 34 -28 10 14 52 87 71 125 l23 46 -31 32 c-75
76 -206 160 -282 181 -16 4 -34 9 -40 11 -83 24 -205 25 -285 4z"/>
<path d="M5498 9324 c-4 -3 -111 -6 -238 -6 l-230 0 0 -1004 c0 -552 3 -1005
8 -1005 25 -4 1062 -3 1063 1 6 27 2 193 -4 197 -5 3 -209 5 -453 5 -330 0
-444 3 -445 11 0 7 -1 165 -2 352 l-2 341 393 -1 c217 0 398 3 403 6 9 5 10
18 8 126 -1 28 2 56 5 61 3 6 0 12 -7 14 -6 2 -189 4 -404 3 -216 0 -393 2
-394 5 -5 33 -2 673 3 676 4 2 205 5 447 5 322 1 441 4 443 13 4 10 3 129 -1
178 -1 14 -9 18 -33 17 -18 -1 -55 -1 -83 0 -27 1 -143 0 -258 -1 -114 -2
-208 1 -210 5 -1 5 -5 5 -9 1z"/>
<path d="M9002 9321 l-33 -6 129 -257 c71 -142 127 -258 123 -258 -3 0 -1 -4
5 -8 6 -4 87 -161 181 -348 l170 -342 1 -388 c0 -214 1 -394 1 -399 1 -6 35
-10 84 -10 l82 0 1 400 1 400 28 55 c16 30 29 57 30 60 1 3 23 48 49 100 197
387 496 984 496 990 0 9 -47 19 -55 12 -3 -3 -35 -5 -70 -5 -50 1 -65 -2 -65
-13 0 -8 -4 -14 -10 -14 -5 0 -10 -4 -10 -10 0 -12 -470 -960 -476 -960 -4 0
-208 409 -209 420 0 3 -7 16 -15 30 -16 27 -63 122 -65 130 0 3 -9 21 -20 40
-11 19 -20 37 -20 40 0 3 -38 80 -84 172 l-83 168 -57 -2 c-31 -1 -61 0 -66 3
-6 3 -25 3 -43 0z"/>
<path d="M6444 9309 c-8 -14 -8 -1988 1 -1997 4 -4 227 -7 496 -7 l489 0 1 25
c2 43 -2 174 -6 180 -2 3 -186 5 -409 5 -270 0 -406 3 -407 10 -1 5 -2 411 -3
900 l-1 890 -77 2 c-46 2 -80 -2 -84 -8z"/>
<path d="M7742 8312 l3 -1007 80 0 80 0 0 438 0 437 30 1 c16 0 193 0 393 1
229 0 364 4 368 10 5 8 8 107 5 181 -1 16 -27 17 -396 17 -217 0 -396 3 -396
8 -4 21 -5 689 -1 699 2 8 112 11 420 12 229 0 429 0 443 0 l26 1 -1 103 -1
102 -528 2 -527 1 2 -1006z"/>
<path d="M10916 8523 c-3 -3 -6 -161 -6 -350 l0 -343 93 -1 c96 0 267 0 302 1
20 0 20 6 20 338 1 215 -3 340 -9 344 -6 4 -58 7 -117 6 -59 0 -112 2 -118 6
-6 4 -11 4 -11 -1 0 -9 -122 -9 -137 0 -6 4 -13 4 -17 0z"/>
<path d="M2674 8095 c-2 -5 -3 -955 -2 -2110 l3 -2099 190 -1 c105 0 195 1
200 2 8 3 11 264 10 836 -1 902 -3 860 52 924 10 11 34 41 53 64 53 66 182
189 197 189 7 0 13 5 13 10 0 6 10 15 23 20 24 11 59 32 67 40 13 15 156 71
217 85 65 16 240 23 293 12 14 -3 43 -8 65 -12 22 -4 46 -12 53 -18 6 -5 12
-7 12 -4 0 10 94 -35 144 -70 111 -76 196 -203 232 -348 4 -16 8 -32 9 -35 13
-41 18 -307 18 -935 l0 -760 191 1 c105 1 197 2 204 3 11 1 12 159 9 854 -1
468 -6 863 -10 877 -4 14 -10 40 -13 59 -3 19 -15 64 -27 100 -11 36 -21 68
-22 71 -2 13 -72 149 -90 177 -165 242 -419 395 -715 428 -53 6 -248 7 -268 1
-9 -3 -35 -7 -57 -11 -114 -17 -291 -82 -366 -136 -16 -11 -29 -17 -29 -12 0
4 -4 3 -8 -2 -4 -6 -36 -31 -72 -57 -36 -25 -87 -68 -114 -96 -28 -28 -52 -49
-55 -47 -3 2 -6 450 -5 997 0 546 -1 998 -3 1003 -5 14 -394 14 -399 0z"/>
<path d="M10927 7552 c-16 -3 -17 -32 -17 -348 l0 -344 208 2 207 1 0 344 0
343 -30 1 c-102 3 -354 3 -368 1z"/>
<path d="M10914 6575 c-2 -5 -3 -161 -2 -345 l3 -335 195 -1 c107 0 200 1 205
3 7 2 10 124 10 346 l0 342 -204 0 c-132 1 -205 -3 -207 -10z"/>
<path d="M12588 6445 c-67 -77 -132 -153 -147 -170 -25 -29 -116 -136 -156
-184 -11 -13 -38 -45 -60 -70 -22 -26 -58 -69 -80 -95 -22 -27 -45 -54 -51
-60 -5 -6 -48 -56 -94 -111 -46 -55 -87 -102 -90 -105 -3 -3 -30 -34 -60 -70
-30 -36 -62 -74 -72 -85 -33 -38 -162 -190 -177 -209 -9 -10 -28 -33 -43 -50
l-26 -32 75 -79 c208 -220 346 -366 418 -443 44 -47 100 -106 125 -132 25 -26
99 -105 165 -175 66 -70 143 -151 170 -180 28 -28 88 -92 135 -142 l85 -91
207 0 208 1 -2 1311 -3 1311 -204 0 -203 1 -120 -141z"/>
<path d="M1257 6464 c-1 -1 -33 -4 -72 -7 -38 -4 -95 -11 -125 -17 -30 -6 -66
-13 -80 -16 -14 -3 -70 -21 -125 -40 -55 -19 -104 -35 -110 -37 -5 -1 -12 -4
-15 -7 -3 -3 -23 -14 -45 -25 -276 -136 -483 -363 -594 -653 -24 -59 -57 -184
-66 -240 -3 -21 -8 -49 -11 -62 -10 -40 -13 -350 -4 -410 4 -30 11 -75 15
-100 11 -74 48 -207 74 -265 50 -111 69 -145 120 -222 100 -149 251 -286 407
-368 38 -20 75 -41 81 -47 7 -6 13 -7 13 -3 0 4 6 3 13 -3 34 -29 276 -95 402
-110 132 -15 430 -2 545 24 14 3 39 8 55 11 45 7 253 77 310 105 l50 23 0 208
c1 204 0 207 -20 201 -11 -4 -22 -10 -25 -15 -19 -29 -327 -140 -430 -154
-113 -16 -160 -20 -260 -19 -139 0 -246 14 -320 41 -8 3 -24 8 -35 10 -37 7
-190 85 -245 126 -158 115 -270 282 -320 476 -25 101 -32 164 -32 292 1 107
33 301 54 326 6 7 8 13 5 13 -12 0 46 116 88 180 175 260 467 397 840 393 220
-3 434 -63 596 -170 37 -23 69 -43 73 -43 3 0 6 90 6 200 l0 200 -37 23 c-185
113 -422 174 -712 180 -34 1 -63 1 -64 1z"/>
<path d="M6647 6464 c-1 -1 -29 -4 -62 -7 -130 -11 -314 -63 -415 -116 -162
-85 -295 -191 -400 -316 -141 -169 -252 -441 -277 -685 -11 -103 -5 -455 7
-455 1 0 3 -11 4 -25 8 -83 61 -249 113 -355 84 -171 188 -297 348 -423 28
-21 146 -91 195 -114 108 -52 255 -100 345 -113 17 -3 41 -7 55 -10 130 -29
404 -25 655 9 159 21 473 127 476 160 4 39 3 379 -1 386 -3 5 -37 -6 -75 -25
-113 -53 -136 -62 -230 -90 -189 -55 -295 -70 -500 -69 -136 0 -260 10 -280
22 -5 4 -19 7 -30 8 -37 3 -139 36 -220 72 -241 107 -395 291 -451 540 -21 92
-16 104 38 102 24 -1 48 -1 53 0 6 1 14 2 20 0 30 -6 105 -4 105 3 0 5 5 5 10
2 13 -8 165 -9 177 -2 5 3 15 2 22 -3 8 -4 25 -5 40 -1 14 5 38 5 52 1 15 -4
32 -4 39 0 8 5 23 5 34 0 12 -4 30 -4 40 0 11 3 37 3 58 0 21 -4 41 -4 44 1 2
4 14 5 26 0 11 -4 40 -4 64 -1 24 4 44 4 44 1 0 -3 41 -6 90 -6 50 0 90 3 90
6 0 4 16 3 35 -1 19 -4 37 -4 40 0 3 5 18 5 34 0 15 -4 34 -4 41 0 7 5 23 5
34 0 12 -4 30 -4 40 0 11 3 37 3 58 0 21 -4 41 -4 44 1 2 4 11 6 19 3 23 -9
105 -10 105 -1 0 5 5 5 10 2 13 -8 165 -9 177 -2 5 3 15 2 22 -3 8 -4 27 -4
42 0 16 5 41 5 57 1 15 -5 37 -5 49 0 12 4 25 4 28 -1 7 -11 45 0 46 14 0 6 2
20 4 31 31 155 26 445 -10 600 -16 70 -61 204 -75 220 -4 5 -9 15 -10 20 -10
50 -116 208 -193 286 -84 85 -110 107 -189 157 -104 65 -276 133 -371 146 -18
3 -42 7 -55 10 -42 9 -279 25 -285 20z m218 -398 c300 -39 522 -238 591 -527
3 -13 8 -66 10 -116 3 -69 0 -93 -9 -94 -6 0 -362 -1 -790 -2 l-778 -2 5 50
c8 72 17 117 27 138 5 9 8 17 5 17 -14 0 64 161 109 223 51 72 200 204 225
200 3 0 16 7 30 16 32 22 112 56 168 71 43 11 72 16 147 27 22 3 41 6 42 7 5
4 170 -2 218 -8z"/>
<path d="M9473 6458 c-77 -6 -107 -10 -178 -23 -90 -17 -229 -63 -320 -105
-62 -30 -192 -105 -205 -120 -3 -3 -21 -17 -40 -31 -50 -38 -149 -136 -195
-194 -22 -27 -43 -52 -46 -55 -3 -3 -8 -12 -12 -20 -4 -8 -18 -33 -32 -55 -53
-84 -134 -291 -150 -385 -32 -181 -40 -475 -16 -583 6 -26 13 -62 16 -80 8
-60 74 -260 87 -265 4 -2 8 -10 8 -18 0 -7 20 -48 46 -90 62 -107 128 -190
208 -263 22 -20 47 -43 56 -52 63 -60 274 -177 385 -214 85 -28 152 -46 189
-51 22 -3 43 -7 48 -10 36 -22 430 -23 543 -1 11 3 38 8 60 12 86 16 93 17
155 34 68 19 128 41 206 76 l71 33 0 206 c1 114 -2 205 -6 204 -159 -80 -282
-131 -341 -143 -8 -2 -34 -8 -58 -14 -24 -7 -57 -14 -75 -16 -18 -3 -43 -7
-57 -11 -14 -3 -91 -7 -172 -9 -155 -2 -250 11 -388 56 -261 86 -462 288 -543
545 -34 108 -39 144 -43 314 -5 254 52 444 184 608 230 288 664 405 1095 296
130 -33 285 -106 355 -168 17 -15 22 -16 23 -5 0 8 1 99 2 203 l2 188 -25 20
c-51 41 -244 123 -330 142 -209 45 -348 57 -507 44z"/>
<path d="M10910 5275 l0 -345 28 0 c171 -3 375 0 381 5 3 4 6 159 6 344 l0
338 -207 2 -208 1 0 -345z"/>
<path d="M10963 4652 l-53 -3 0 -344 0 -344 207 2 208 2 0 343 0 342 -55 1
c-30 0 -100 1 -155 2 -55 1 -124 1 -152 -1z"/>
</g>
</svg>
