<svg width="100" height="100" fill="none" xmlns="http://www.w3.org/2000/svg"><path d="M74.648 56.088a8.73 8.73 0 00-4 .989v14.969a8.627 8.627 0 007.46.197 8.54 8.54 0 003.046-2.292 8.418 8.418 0 001.73-3.376 8.36 8.36 0 00.065-3.785 8.41 8.41 0 00-1.611-3.433 8.53 8.53 0 00-2.965-2.394 8.629 8.629 0 00-3.725-.875z" fill="#F91A2B"/><path d="M34.87 76.713h-.81v-.504c0-.129 0-.307-.05-.524l-.24-2.334c-.3.574-.59 1.127-.86 1.691-.27.564-.53 1.068-.82 1.67h-.3a69.2 69.2 0 00-.85-1.72c-.29-.563-.56-1.067-.8-1.522l-.18 1.523c0 .267-.07.563-.1.9-.03.335 0 .602 0 .82-.1-.007-.2-.007-.3 0h-.31l.24-1.542.48-3.46c.106.01.214.01.32 0h.32c.27.582.55 1.156.84 1.74.29.583.57 1.136.87 1.69.6-1.098 1.16-2.245 1.69-3.43h.35c.11.01.22.01.33 0l.43 3.5c.05.434.08.691.1.78.033.243.08.484.14.722h-.49zm7.971-3.471a.13.13 0 01-.13-.133c0-.023.008-.045.02-.065l1.38-1.977a.129.129 0 01.105-.053.13.13 0 01.105.053l1.38 1.977a.128.128 0 01-.043.18.13.13 0 01-.067.018h-2.75zM19.18 71.067h2.76a.121.121 0 01.118.065.117.117 0 01-.019.132l-1.37 1.918a.128.128 0 01-.105.053.13.13 0 01-.105-.053l-1.38-1.918a.127.127 0 01.037-.176.131.131 0 01.063-.021z" fill="#393C4C"/><path d="M39.719 14h-14.93a14.192 14.192 0 00-9.934 4.082 13.871 13.871 0 00-4.136 9.819v40.29c0 .454 0 .909.07 1.364v3.193c.24 7.791 9.75 14.07 21.48 14.07s21.24-6.279 21.47-14.07V27.901A13.871 13.871 0 0049.62 18.1a14.191 14.191 0 00-9.9-4.1z" stroke="#393C4C" stroke-width="2" stroke-linecap="round" stroke-linejoin="round"/><path d="M49.721 27.842a7.41 7.41 0 00-.573-2.868 7.482 7.482 0 00-1.64-2.431 7.576 7.576 0 00-2.458-1.625 7.644 7.644 0 00-2.899-.57h-19.79c-2.01 0-3.938.789-5.36 2.194a7.452 7.452 0 00-2.22 5.3V66.41c0 8.78 7.82 15.899 17.47 15.899 9.65 0 17.47-7.119 17.47-15.898V27.84zm-34.94-1.582h34.94m-34.94 36.77h34.94m-34.94 5.21h34.94M21.32 77.78l6.23-9.54m15.63 9.54l-6.23-9.54m4.51-53.933c-1.36 2.096-5 3.588-9.21 3.588-4.21 0-8.06-1.581-9.32-3.776M60.621 37.54h28.05M60.16 46.35V29.878h28.89v55.733H70.69" stroke="#393C4C" stroke-width="2" stroke-linecap="round" stroke-linejoin="round"/><path d="M58.48 47.457l3.51-2.303h5.19l3.51 2.303v38.154H58.48V47.457z" stroke="#393C4C" stroke-width="2" stroke-linecap="round" stroke-linejoin="round"/><path d="M65.441 48.485v-3.331h-1.7v3.331h1.7zm-.853 2.294a.785.785 0 00.67-.521.762.762 0 00-.212-.815.784.784 0 00-1.18.144.765.765 0 00-.128.42c.01.214.106.415.265.559.16.144.37.22.585.213z" fill="#393C4C"/><path d="M58.48 54.239h12.21M58.48 78.175h12.21" stroke="#393C4C" stroke-width="2" stroke-linecap="round" stroke-linejoin="round"/><path d="M61.36 77.958v3.718l.88.82v3.095m5.57-7.633v3.718l-.88.82v3.095" stroke="#393C4C" stroke-width="1.5" stroke-linejoin="round"/><path d="M23.91 51.857h10.57" stroke="#393C4C" stroke-width="2" stroke-miterlimit="10" stroke-linecap="round"/><path d="M30.64 45.45h-6.85l1.91-1.978h3.33l1.61 1.978zm-6.58-7.84l.39-5.182 1.6 1.978-.2 2.699-1.2 1.266-.59-.762zm7.61-5.577l-1.92 1.977h-3.32l-1.61-1.977h6.85zm-2 5.715l.81.988-1 .99h-3.76l-.8-.99.95-.988h3.8zm1.69 2.125l-.39 5.191-1.6-1.977.2-2.71 1.2-1.245.59.741zm1.402 5.577l.15-1.978h1.76l-.15 1.978h-1.76zm5.676-5.043l-.2 2.7-1.91 1.977.38-5.19.73-.752 1 1.265zm5.05 5.082h-6.85l1.91-1.977h3.33l1.61 1.977zm-6.59-7.84l.4-5.181 1.62 1.977-.21 2.7-1.21 1.265-.6-.761zm7.62-5.577l-1.91 1.978h-3.33l-1.61-1.977h6.85zm-2 5.715l.81.989-1 .989h-3.77l-.8-.99.95-.988h3.81zm1.66 2.126l-.38 5.19-1.61-1.977.2-2.709 1.2-1.246.59.742zm-1.54-2.759l.21-2.738 1.92-1.978-.4 5.2-.73.772-1-1.256z" fill="#393C4C"/></svg>