<svg width="100" height="100" fill="none" xmlns="http://www.w3.org/2000/svg"><path d="M6.203 53.307V18.38c0-.973.39-1.906 1.084-2.594a3.716 3.716 0 012.616-1.075h55.41c.981 0 1.923.387 2.617 1.075a3.653 3.653 0 011.083 2.594v17.235M41.54 61.666h-33a5.574 5.574 0 01-3.918-1.615A5.48 5.48 0 013 56.163V53.93h24.96l1.35 2.757h12.9M6.203 20.92h62.81" stroke="#393C4C" stroke-width="2" stroke-linecap="round" stroke-linejoin="round"/><path d="M69.042 90.107c14.99 0 27.14-12.05 27.14-26.913 0-14.864-12.15-26.913-27.14-26.913-14.989 0-27.14 12.049-27.14 26.913s12.151 26.913 27.14 26.913z" stroke="#F91A2B" stroke-width="2" stroke-miterlimit="10"/><path d="M78.73 70.195v5.602H59.36v-5.602m9.683-4.83V48.557m5.739 12.356l-5.74 5.682-5.73-5.682" stroke="#F91A2B" stroke-width="4" stroke-linecap="round" stroke-linejoin="round"/><path d="M44.81 31.59a4.825 4.825 0 00-6.79 0l-.41.407-.42-.407a4.822 4.822 0 00-3.362-1.289 4.82 4.82 0 00-3.32 1.396 4.74 4.74 0 00-1.402 3.294 4.738 4.738 0 001.305 3.332l.41.407 6.79 6.733 6.79-6.733.41-.407a4.75 4.75 0 001.403-3.366 4.75 4.75 0 00-1.403-3.367z" fill="#393C4C" stroke="#393C4C" stroke-width="2" stroke-linecap="round" stroke-linejoin="round"/></svg>