<svg width="100" height="100" fill="none" xmlns="http://www.w3.org/2000/svg"><path d="M87.99 31.828l-1.67-8.181-7.34-7.279-8.25-1.656-54.59 54.124 17.27 17.126 54.58-54.134z" stroke="#393C4C" stroke-width="2" stroke-linecap="round" stroke-linejoin="round"/><path d="M79.085 25.926l4.767-4.726-2.412-2.392-4.766 4.727 2.411 2.391zM74.6 27.99a1.551 1.551 0 01.4-2.342 1.58 1.58 0 011.715.074 1.559 1.559 0 01.622 1.587 1.554 1.554 0 01-.428.781 1.631 1.631 0 01-1.175.427 1.64 1.64 0 01-1.134-.526z" fill="#393C4C"/><path d="M81.112 38.65l-17.26-17.116M44.051 75.4l-17.27-17.115" stroke="#393C4C" stroke-width="2" stroke-linecap="round" stroke-linejoin="round"/><path d="M40.291 71.058l-5.33 5.275-2.4-.08-4.44 4.403m3.051-18.643l-5.33 5.286.09 2.38-4.44 4.403" stroke="#393C4C" stroke-width="2" stroke-linejoin="round"/><path d="M70.521 48.864l2.46-7.824-7.86 2.469 5.4 5.355zm2.46-7.824l.06.059 2.5-7.973-8.01 2.509 5.45 5.404zM36.03 66.873l2.5-7.983-8.01 2.509.03.04 5.48 5.434zm26.558-15.411l2.5-7.943-7.92 2.48 5.42 5.374-8.01 2.519.01.01 5.56 5.503 2.5-7.963-.06.02zm-.539-21.261l-7.86 2.46 5.39 5.355-7.95 2.489 5.45 5.404.03.03 4.94-15.738z" stroke="#393C4C" stroke-linecap="round" stroke-linejoin="round"/><path d="M67.532 35.636l2.5-7.974-8.02 2.51.04.03 5.48 5.433zM41.04 50.916l5.5 5.455.04.04 2.5-7.974 5.5 5.454 2.5-7.982-8.01 2.509 2.5-7.973-8.02 2.509 5.5 5.454-8.01 2.508zM22.598 63.927l5.43 5.375-7.95 2.499 5.45 5.394.06.06 4.96-15.817-7.95 2.49zm21.453.436l-8.02 2.509 5.45 5.404.06.06 2.51-7.973z" stroke="#393C4C" stroke-linecap="round" stroke-linejoin="round"/><path d="M44.03 64.343l2.51-7.973-8.02 2.51.01.01 5.5 5.453zm13.14-18.345l7.92-2.48.01-.029.02.02 7.86-2.47-5.45-5.404-5.48-5.434-4.94 15.737.06.06z" stroke="#393C4C" stroke-linecap="round" stroke-linejoin="round"/><path d="M54.191 32.66l7.86-2.459-.04-.03-2.82-2.806-5.5 5.454.33-.1.05-.168.12.11zM70.52 48.864l.09.09-.13.04-.09.287 5.45-5.405-2.8-2.777-.06-.06-2.46 7.825zM30.55 61.438l-4.96 15.816 15.89-4.978-5.45-5.404-5.48-5.434zm-7.949 2.489l7.95-2.49-.03-.039-2.83-2.796-5.5 5.454.29-.1.04-.119.08.09z" stroke="#393C4C" stroke-linecap="round" stroke-linejoin="round"/><path d="M38.978 80.27l-.08.237 5.44-5.395-2.8-2.776-.06-.06-2.48 7.904.06.06-.08.03zM33.01 53.416l.04-.129-.19.189 8.16-2.55v-.02l-8.01 2.51z" stroke="#393C4C" stroke-linecap="round" stroke-linejoin="round"/><path d="M41.038 50.916l8.01-2.508-5.5-5.455-.04-.04-5.27 5.227 2.78 2.767.02.01zm8.521 19.02l.09-.08-.05.01 2.5-7.972 2.79 2.757 5.27-5.226-.01-.02-5.56-5.504-5.03 16.035zm14.963-47.737l-2.51 7.973 8.02-2.51-5.51-5.463zM81.05 38.59l-5.51-5.464-2.5 7.973 8.01-2.508zM36.031 66.873l8.02-2.51-.02-.02-5.5-5.453-2.5 7.983zm2.489-7.993l-5.5-5.455-2.5 7.973 8.01-2.509-.01-.01zM28.03 69.302l-5.43-5.375-.08-.09-.04.12-2.44 7.794.04.05 7.95-2.5z" stroke="#393C4C" stroke-linecap="round" stroke-linejoin="round"/><path d="M49.56 69.827l-5.51-5.464-2.51 7.973 8.02-2.509zM31.11 82.728l7.87-2.459.08-.03-.06-.06-5.46-5.404-2.5 7.973.06-.02v-.01l.01.01zm28.47-44.713l-5.39-5.354-.12-.11-.05.17-2.43 7.744.04.04 7.95-2.49zm10.94 10.849l-5.4-5.355-.02-.02-.01.03-2.5 7.943.06-.02v-.01l.01.01 7.82-2.45.13-.039-.09-.089zm-21.442-.427l-2.5 7.973 8.01-2.509-.01-.01-5.5-5.454z" stroke="#393C4C" stroke-linecap="round" stroke-linejoin="round"/><path d="M57.08 45.909l-5.45-5.405-.04-.04-.02-.02-2.5 7.973 8.01-2.508z" stroke="#393C4C" stroke-linecap="round" stroke-linejoin="round"/><path d="M48.78 37.678l-5.19 5.157-.04.119 8.02-2.51-2.79-2.766zm8.388 8.32l-.06-.06-.03-.029-2.5 7.983 8.01-2.52-5.42-5.374zm5.48 5.445l-2.5 7.963.04-.01 5.25-5.197-2.78-2.756-.01-.01v.01zM20.04 71.751l-.02-.02-2.5 7.973 8.01-2.509-5.45-5.394-.04-.05zm-8 2.37l-.04.12 8.02-2.51-2.79-2.756-5.19 5.146zm10.991 11.047l8.01-2.51-5.45-5.403-.06-.06-2.5 7.973zm8.081-2.439l-.01-.01v.01l-2.5 7.963.04-.01 5.24-5.196-2.77-2.757zm9.928-31.813l-.02-.01v.02l-2.5 7.953 8.02-2.508-5.5-5.455z" stroke="#393C4C" stroke-linecap="round" stroke-linejoin="round"/><path d="M41.022 50.907l-2.78-2.767-5.19 5.147-.04.129 8.01-2.509zm3.009 13.436l8.02-2.509-5.47-5.424-.04-.04-2.51 7.973zm5.571 5.524l.05-.01 5.24-5.206-2.79-2.756-2.5 7.972z" stroke="#393C4C" stroke-linecap="round" stroke-linejoin="round"/><path d="M83.54 69.974c1.57-9.545-4.96-18.547-14.585-20.105-9.626-1.558-18.703 4.918-20.274 14.463-1.571 9.546 4.958 18.547 14.584 20.105 9.626 1.558 18.703-4.917 20.275-14.463z" fill="#fff" stroke="#F91A2B" stroke-width="2" stroke-miterlimit="10"/><path d="M71.826 67.085L63.59 72.17a.39.39 0 01-.536-.13.38.38 0 01-.054-.192v-10.15a.38.38 0 01.2-.332.39.39 0 01.39.01l8.215 5.065a.378.378 0 01.195.316.372.372 0 01-.174.328z" fill="#F91A2B" stroke="#F91A2B" stroke-width="2" stroke-miterlimit="10"/></svg>