<svg width="100" height="100" fill="none" xmlns="http://www.w3.org/2000/svg"><path d="M46.927 82.413h-.91v-.566c0-.148 0-.347-.06-.585l-.27-2.627c-.33.634-.66 1.269-1 1.893-.34.625-.59 1.21-.91 1.885h-.35c-.31-.655-.62-1.3-.95-1.984-.33-.684-.62-1.21-.9-1.715l-.21 1.715c0 .298-.07.635-.1.992-.033.306-.05.614-.05.922h-.69l.28-1.735.53-3.897c.12.012.24.012.36 0h.37c.3.654.61 1.309.93 1.983.32.674.66 1.29 1 1.904.67-1.23 1.3-2.519 1.9-3.858h.39c.123.012.247.012.37 0l.48 3.967c.06.486.1.774.11.883 0 .257.09.525.16.803l-.48.02zm8.95-3.918a.141.141 0 01-.12-.076.137.137 0 01.01-.142l1.55-2.192a.138.138 0 01.115-.06.14.14 0 01.115.06l1.55 2.172a.138.138 0 01-.12.218l-3.1.02zM29.32 76.086h3.1a.151.151 0 01.125.08.147.147 0 01-.006.148l-1.55 2.122a.15.15 0 01-.24 0l-1.56-2.161a.148.148 0 01.13-.189z" fill="#393C4C"/><path d="M52.377 11.709h-16.79a15.927 15.927 0 00-11.164 4.606 15.662 15.662 0 00-4.646 11.071v45.368c0 .526 0 .992.08 1.547v3.59c.26 8.796 11 15.866 24.14 15.866s23.87-7.08 24.14-15.866V27.386a15.652 15.652 0 00-4.624-11.057 15.917 15.917 0 00-11.136-4.62v0z" stroke="#393C4C" stroke-width="2" stroke-miterlimit="10"/><path d="M63.618 27.317a8.38 8.38 0 00-.645-3.233 8.435 8.435 0 00-1.844-2.74 8.514 8.514 0 00-2.762-1.832 8.572 8.572 0 00-3.26-.644h-22.25a8.573 8.573 0 00-3.258.644 8.515 8.515 0 00-2.762 1.831 8.434 8.434 0 00-1.844 2.741 8.375 8.375 0 00-.645 3.233V70.78c0 9.917 8.79 17.92 19.64 17.92 10.85 0 19.63-8.023 19.63-17.92V27.318v0zm-39.27-1.785h39.27m-39.27 41.461h39.27m-39.27 5.87h39.27M31.7 83.623l7-10.76m17.57 10.76l-7-10.76m5.068-60.808c-1.53 2.36-5.59 4.046-10.35 4.046s-9.06-1.785-10.48-4.254" stroke="#393C4C" stroke-width="2" stroke-miterlimit="10"/><path d="M92.318 17.788c-.87-.823-2.07-2.41-2.07-3.461v-2.42h-12.94v2.42c0 1.051-1.2 2.638-2.07 3.46-.87.824-2 1.687-2 4.76v64.16a6.312 6.312 0 00.485 2.436 6.354 6.354 0 001.39 2.065 6.413 6.413 0 002.08 1.38c.778.32 1.613.486 2.455.486h8.32c.843 0 1.677-.165 2.456-.485a6.416 6.416 0 002.08-1.38 6.353 6.353 0 001.39-2.066 6.31 6.31 0 00.484-2.436v-64.17c-.03-3.063-1.19-3.916-2.06-4.75z" stroke="#393C4C" stroke-width="2" stroke-linecap="round" stroke-linejoin="round"/><path d="M83.78 69.878a6.287 6.287 0 01-4.427-1.818 6.182 6.182 0 01-1.834-4.39V37.322c0-1.647.66-3.227 1.833-4.393a6.297 6.297 0 014.427-1.824v0c1.663 0 3.258.655 4.434 1.82a6.192 6.192 0 011.837 4.397V63.67a6.192 6.192 0 01-1.84 4.39 6.297 6.297 0 01-4.43 1.818v0zm10.577 7.695h-21.15v7.666h21.15v-7.666z" stroke="#393C4C" stroke-width="2" stroke-linecap="round" stroke-linejoin="round"/><path d="M83.779 83.078a1.696 1.696 0 01-1.11-.533 1.669 1.669 0 010-2.277c.289-.31.685-.5 1.11-.533v0a1.7 1.7 0 011.11.533 1.669 1.669 0 010 2.277 1.7 1.7 0 01-1.11.533z" stroke="#393C4C" stroke-linejoin="round"/><path d="M36.738 51.355h10.57" stroke="#393C4C" stroke-width="2" stroke-miterlimit="10" stroke-linecap="round"/><path d="M41.32 69.886c0-9.671-7.907-17.512-17.66-17.512S6 60.214 6 69.886 13.907 87.4 23.66 87.4s17.66-7.84 17.66-17.513z" fill="#fff" stroke="#F91A2B" stroke-width="2" stroke-miterlimit="10"/><path d="M29.412 70.032l-8.231 5.085a.39.39 0 01-.537-.13.379.379 0 01-.054-.192v-10.15a.378.378 0 01.2-.332.391.391 0 01.39.01l8.232 5.065a.384.384 0 01.178.322.378.378 0 01-.178.322z" fill="#F91A2B" stroke="#F91A2B" stroke-width="2" stroke-miterlimit="10"/><path d="M42.858 45.147h-6.85l1.91-1.983h3.33l1.61 1.983zm-6.58-7.854l.39-5.206 1.6 1.983-.2 2.697-1.2 1.27-.59-.744zm7.61-5.593l-1.92 1.984h-3.32l-1.61-1.984h6.85zm-2 5.722l.81.992-1 .991h-3.71l-.8-1.001 1-.992 3.7.01zm1.69 2.132l-.39 5.216-1.6-1.983.2-2.707 1.2-1.25.59.724zm1.399 5.593l.15-1.984h1.76l-.15 1.984h-1.76zm5.68-5.087l-.2 2.707-1.91 1.983.38-5.206.73-.744 1 1.26zm5.05 5.087h-6.85l1.91-1.983h3.33l1.61 1.983zm-6.59-7.854l.4-5.206 1.62 1.983-.21 2.697-1.21 1.27-.6-.744zm7.62-5.593l-1.91 1.984h-3.33l-1.61-1.984h6.85zm-2 5.722l.81.992-1 .991h-3.71l-.8-.991.95-.992h3.75zm1.68 2.132l-.38 5.216-1.61-1.983.2-2.707 1.2-1.25.59.724zm-1.54-2.767l.21-2.746 1.92-1.984-.4 5.216-.73.764-1-1.25zm32.441 9.966v3.492l-1-.992v-1.687l1-.813zm-4.07 3.353l-2.7-.199 1-.813 1.4.1.66.614-.36.298zm-2.9-3.879l1 .992v1.696l-1 .824v-3.512zm3 .992l.51-.416.52.486v1.924l-.52.407-.51-.486v-1.915zm1.1-.873l2.7.199-1 .823-1.47-.04-.65-.605.42-.377zm2.868-.673l-1-.08v-.903l1 .08v.903zm-2.638-2.906l1.41.109 1 .991-2.7-.198-.39-.367.68-.535zm2.64-2.569v3.49l-1-.99V41.01l1-.813zm-4.07 3.352l-2.7-.198 1-.823 1.4.099.66.624-.36.298zm-2.9-3.877l1 .991v1.706l-1 .823v-3.52zm3 .991l.51-.416.52.486v1.923l-.52.407-.51-.486v-1.914zm1.1-.862l2.7.188-1 .833-1.41-.11-.65-.614.36-.297zm-1.43.783l-1.43-.109-1-.992 2.71.199.4.377-.68.525z" fill="#393C4C"/></svg>