<svg width="100" height="100" fill="none" xmlns="http://www.w3.org/2000/svg"><path d="M78.738 44.72v26.67m-64.308 0V32.86a3.92 3.92 0 013.79-4h48.11m-9.711 43.22h25.39v2.45a5.88 5.88 0 01-5.68 6.07h-59.48a5.88 5.88 0 01-5.67-6.07v-2.45h25.5l1.39 3h17.16l1.39-3zM14.43 35.66h51.9" stroke="#393C4C" stroke-width="2" stroke-linecap="round" stroke-linejoin="round"/><path d="M53.96 47.43a4.7 4.7 0 00-7 0l-.42.45-.42-.45a4.7 4.7 0 00-7 0 5.5 5.5 0 000 7.42l.42.45 7 7.42 7-7.42.42-.45a5.5 5.5 0 000-7.42z" fill="#F91A2B" stroke="#F91A2B" stroke-width="2" stroke-miterlimit="10"/><path d="M88.298 35.18V29.8l-2.7-.13a9.927 9.927 0 00-.8-1.93l1.82-2-3.81-3.82-2 1.81a9.842 9.842 0 00-1.92-.8l-.13-2.69h-5.39l-.13 2.68a9.847 9.847 0 00-1.92.8l-2-1.81-3.81 3.81 1.82 2a9.931 9.931 0 00-.8 1.93l-2.7.13v5.38l2.7.13c.198.67.466 1.317.8 1.93l-1.82 2 3.81 3.81 2-1.81c.61.334 1.254.602 1.92.8l.13 2.69h5.39l.13-2.69a9.836 9.836 0 001.92-.8l2 1.81 3.81-3.81-1.82-2c.334-.613.602-1.26.8-1.93l2.7-.11z" stroke="#393C4C" stroke-width="2" stroke-linejoin="round"/><path d="M76.068 36.06a3.57 3.57 0 11-.02-7.14 3.57 3.57 0 01.02 7.14v0z" stroke="#393C4C" stroke-width="2" stroke-linejoin="round"/></svg>