<svg width="100" height="100" fill="none" xmlns="http://www.w3.org/2000/svg"><path d="M79.312 28.06c0-1.2.26-3.18 1-3.93l1.71-1.72-4.43-4.43-.27-.27-4.44-4.44-1.7 1.72c-.76.75-2.73 1-3.93 1-1.2 0-2.64-.23-4.82 2L18.892 61.5l-2 2-.13.13a6.41 6.41 0 000 9.06l5.87 5.87a6.4 6.4 0 009.05 0l.13-.13 2-2 43.55-43.51c2.19-2.23 1.98-3.66 1.95-4.86z" stroke="#393C4C" stroke-width="2" stroke-linecap="round" stroke-linejoin="round"/><path d="M63.977 31.683l-.375-.374a5.99 5.99 0 00-8.471-.002L36 50.431a5.99 5.99 0 00-.002 8.471l.374.375a5.99 5.99 0 008.472.002l19.13-19.125a5.99 5.99 0 00.002-8.47zM38.2 72.043L23.273 57.116l-5.458 5.46 14.927 14.926 5.459-5.459z" stroke="#393C4C" stroke-width="2" stroke-linecap="round" stroke-linejoin="round"/><path d="M26.86 66.085l-.1.098a1.61 1.61 0 00-.001 2.277l.099.1a1.61 1.61 0 002.277 0l.099-.098a1.61 1.61 0 00.001-2.277l-.099-.1a1.61 1.61 0 00-2.277 0z" stroke="#393C4C" stroke-linejoin="round"/><path d="M55.81 44.5l-2.48 2.49v-1.43l1.2-1.2 1.28.14zm-5.25-.48l-1.76-2.05 1.31.15.92 1.06v.9l-.47-.06zm.71-4.81v1.43l-1.2 1.2-1.32-.14 2.52-2.49zm1.38 2.82l.66.07v.71l-1.36 1.36-.65-.07v-.71l1.35-1.36zm1.39.16l1.76 2-1.31-.14-.91-1.07v-.89l.46.1zm2.54 1.55l-.67-.79.64-.64.67.79-.64.64zm.199-3.93l.92 1.07v1.42l-1.77-2v-.54l.85.05zm3.69 0l-2.48 2.48v-1.42l1.19-1.17 1.29.11zm-5.29-.45l-1.75-2 1.31.14.91 1.07v.9l-.47-.11zm.72-4.8v1.42l-1.21 1.21-1.31-.15 2.52-2.48zm1.37 2.81l.66.07v.72l-1.37 1.36-.65-.08v-.71l1.36-1.36zm1.39.17l1.77 2-1.25-.1-.91-1.07v-.89l.39.06zm-1.57-.45l-.91-1.08v-1.42l1.76 2.05v.55l-.85-.1z" fill="#393C4C"/><path d="M81.335 68.724c2.24-9.492-3.639-19.004-13.131-21.244-9.493-2.24-19.004 3.639-21.245 13.131-2.24 9.493 3.639 19.004 13.131 21.245 9.493 2.24 19.004-3.639 21.245-13.132z" fill="#fff" stroke="#F91A2B" stroke-width="2" stroke-miterlimit="10"/><path d="M68.821 64.816l-8.236 5.125a.38.38 0 01-.585-.326V59.38a.386.386 0 01.584-.325l8.237 5.118a.38.38 0 010 .644z" fill="#F91A2B" stroke="#F91A2B" stroke-width="2" stroke-miterlimit="10"/></svg>