<svg width="100" height="100" fill="none" xmlns="http://www.w3.org/2000/svg"><path d="M79.631 19.49l3.73 3.73-3.56 5.8-7.17 7.71a26.08 26.08 0 00-8.2 8.27l-3.05 3-21.54 20.19-5.74 5-7.75 8.51-4.48-4.48" stroke="#393C4C" stroke-width="2" stroke-linecap="round" stroke-linejoin="round"/><path d="M79.75 19.62l-3.73-3.7-5.79 3.56-7.72 7.16a26.159 26.159 0 01-8.27 8.21l-3 3-20.19 21.54-5 5.75-8.5 7.74 4.48 4.48m12.011-4.43l-7.76-7.76M72.508 36.5l-9.77-9.76" stroke="#393C4C" stroke-width="2" stroke-linecap="round" stroke-linejoin="round"/><path d="M50.69 57.23l-.83-2.2 6.65-6.65a4 4 0 000-5.64 4 4 0 00-5.64 0l-6.69 6.65-2.23-.8" stroke="#393C4C" stroke-width="2" stroke-linecap="round" stroke-linejoin="round"/><path d="M50.749 48.5a.91.91 0 001.29 0l.87-.87a.92.92 0 000-1.29.92.92 0 00-1.29 0l-.87.87a.91.91 0 000 1.29z" fill="#E9342B" stroke="#E9342B" stroke-width="2" stroke-miterlimit="10"/><path d="M54.738 34.94l2.95 2.95h3.68v3.68l2.94 2.94" stroke="#393C4C" stroke-width="2" stroke-linecap="round" stroke-linejoin="round"/><path d="M66.47 32.77s-.16 2.57-1 3.38a1.698 1.698 0 01-2.41 0 1.71 1.71 0 010-2.41c.81-.82 3.41-.97 3.41-.97zm5.56-5.56a.698.698 0 001 0L77.24 23a.701.701 0 000-1 .7.7 0 00-1 0l-4.21 4.21a.72.72 0 000 1zm2.02 2.01a.7.7 0 001 0l4.21-4.21a.71.71 0 00-.77-1.155.7.7 0 00-.23.155l-4.21 4.21a.692.692 0 000 1zm-4.031-4.02a.72.72 0 001 0l4.21-4.21a.72.72 0 000-1 .7.7 0 00-1 0l-4.21 4.21a.699.699 0 000 1z" fill="#393C4C"/><path d="M26.349 81.73c-.66.66-3.18-.78-5.63-3.22-2.45-2.44-3.88-5-3.21-5.63" stroke="#393C4C" stroke-width="2" stroke-linecap="round" stroke-linejoin="round"/><path d="M51.3 77.44l-2.01-2.01L68.72 56l5.79 5.8-19.42 19.42-1.94-1.93" stroke="#393C4C" stroke-width="1.5" stroke-linejoin="round"/><path d="M70.374 58.245L50.102 78.518l1.895 1.895L72.269 60.14l-1.895-1.895z" stroke="#393C4C" stroke-width="1.5" stroke-linejoin="round"/><path d="M49.73 76.01l-2.48 2.49 4.76 4.77 2.49-2.49m21.45-20.22a6 6 0 100-12 6 6 0 000 12z" stroke="#393C4C" stroke-width="1.5" stroke-linejoin="round"/><path d="M75.948 57.93a3.37 3.37 0 100-6.74 3.37 3.37 0 000 6.74z" stroke="#393C4C" stroke-width="1.5" stroke-linejoin="round"/></svg>