<svg width="100" height="100" fill="none" xmlns="http://www.w3.org/2000/svg"><path d="M23.398 15.77h-6v60.34h24.65c3.93 0 7.51 2.32 8.46 5.95m.042 0V24.23a8.46 8.46 0 00-8.46-8.46h-9.55M56.62 76.4a8.11 8.11 0 00-6.07 5.66" stroke="#393C4C" stroke-width="2" stroke-miterlimit="10" stroke-linecap="round"/><path d="M50.55 82.06V24.23a8.46 8.46 0 018.46-8.46h24.64v45.74" stroke="#393C4C" stroke-width="2" stroke-miterlimit="10" stroke-linecap="round"/><path d="M34.552 37.18l-5.52-3.17-5.52 3.17V12.57h11.04v24.61z" fill="#F91A2B" stroke="#F91A2B" stroke-width="2" stroke-linejoin="round"/><path d="M12.281 18.34v64h30.47s.41 4.49 7.8 4.49m7.628-4.53s-.29 4.49-7.8 4.49m38.25-68.44v43.16m.022 7.57a2.74 2.74 0 10-5.47 0v-1.22a2.73 2.73 0 10-5.46 0v-.74a2.74 2.74 0 00-5.47 0v-8.75a2.74 2.74 0 00-5.47 0v27.55h21.85v-7.29l.02-9.55zM66.78 73.47l-2.34-2.34A2.74 2.74 0 0060.57 75l5.78 5.77" stroke="#393C4C" stroke-width="2" stroke-linecap="round" stroke-linejoin="round"/></svg>