<svg width="100" height="100" fill="none" xmlns="http://www.w3.org/2000/svg"><path d="M65.758 59.5a8.55 8.55 0 00-6 2.42V74.2a8.56 8.56 0 106-14.7z" fill="#F91A2B"/><path d="M51.73 40.741h28.05m-28.51 7.7v-15.45h28.89v56.38H59.8" stroke="#393C4C" stroke-width="2" stroke-linecap="round" stroke-linejoin="round"/><path d="M47.59 50.771l3.51-2.33h5.19l3.51 2.33v38.6H47.59v-38.6z" stroke="#393C4C" stroke-width="2" stroke-linecap="round" stroke-linejoin="round"/><path d="M54.55 51.811v-3.37h-1.7v3.37h1.7zm-.852 2.329a.79.79 0 10-.85-.79.82.82 0 00.85.79z" fill="#393C4C"/><path d="M47.59 57.64H59.8m-12.21 24.2H59.8" stroke="#393C4C" stroke-width="2" stroke-linecap="round" stroke-linejoin="round"/><path d="M50.469 81.62v3.77l.88.82v3.14m5.571-7.73v3.77l-.88.82v3.14" stroke="#393C4C" stroke-width="1.5" stroke-linejoin="round"/><path d="M37.29 16.79c-.83-.8-2-2.33-2-3.35v-2.32H22.95v2.32c0 1-1.14 2.55-2 3.35-.86.8-1.95 1.62-1.95 4.58v61.86a6.14 6.14 0 006.14 6.14h7.95a6.13 6.13 0 006.13-6.14V21.37c.07-2.96-1.08-3.79-1.93-4.58z" stroke="#393C4C" stroke-width="2" stroke-linecap="round" stroke-linejoin="round"/><path d="M29.14 67.01a6 6 0 01-6-6V35.62a6 6 0 0112 0v25.4a6 6 0 01-6 5.99v0zm10.111 7.41h-20.22v7.39h20.22v-7.39z" stroke="#393C4C" stroke-width="2" stroke-linecap="round" stroke-linejoin="round"/><path d="M29.141 79.73a1.61 1.61 0 110-3.22 1.61 1.61 0 010 3.22z" stroke="#393C4C" stroke-linejoin="round"/><path d="M32.531 43.84v3.36l-1-.94v-1.63l1-.79zm-3.89 3.23l-2.57-.19 1-.79 1.33.1.63.59-.39.29zm-2.77-3.74l1 .94v1.65l-1 .79v-3.38zm2.84 1l.49-.4.5.47v1.85l-.5.39-.49-.47v-1.84zm1.05-.84l2.58.19-1 .79-1.34-.1-.62-.59.38-.29zm2.77-.689l-1-.07v-.87l1 .07v.87zm-2.52-2.79l1.34.1 1 .93-2.58-.18-.37-.36.61-.49zm2.52-2.48v3.39l-1-.94v-1.66l1-.79zm-3.89 3.24l-2.57-.2 1-.79 1.33.1.63.59-.39.3zm-2.77-3.74l1 .94v1.63l-1 .79v-3.36zm2.84 1l.49-.4.5.47v1.82l-.5.39-.49-.46v-1.82zm1.05-.83l2.58.19-1 .79-1.34-.1-.62-.59.38-.29zm-1.37.76l-1.36-.1-1-1 2.58.2.38.36-.6.54z" fill="#393C4C"/></svg>