<svg width="100" height="100" fill="none" xmlns="http://www.w3.org/2000/svg"><path d="M39.02 13.01l6.56-4.35h9.72l6.56 4.35v72.22H39.02V13.01z" stroke="#393C4C" stroke-width="2" stroke-linecap="round" stroke-linejoin="round"/><path d="M50.442 19.31c.878 0 1.59-.654 1.59-1.46 0-.807-.712-1.46-1.59-1.46-.879 0-1.59.653-1.59 1.46 0 .806.711 1.46 1.59 1.46z" fill="#393C4C"/><path d="M39.02 22.11h22.84M39.02 71.15h22.84" stroke="#393C4C" stroke-width="2" stroke-linecap="round" stroke-linejoin="round"/><path d="M44.398 70.74v7.04l1.65 1.54v5.87M56.47 70.74v7.04l-1.65 1.54v5.87" stroke="#393C4C" stroke-width="2" stroke-linejoin="round"/><path d="M39.2 35.93l3.6-6.84 3.56 6.84H39.2zm3.6-6.84h-.08l3.66-6.98 3.63 6.98H42.8zm7.208 41.67l3.67-6.98 3.63 6.98h-7.3zM42.72 42.91l3.65-6.95 3.59 6.89h-7.19l3.63 6.98h-7.36l3.65-6.97.03.05zm14.541-13.82l3.56 6.84h-7.14l3.6 6.92h-7.25l7.23-13.76z" stroke="#393C4C" stroke-linecap="round" stroke-linejoin="round"/><path d="M50.008 29.09l3.67-6.98 3.63 6.98h-7.3zm7.33 27.72h-7.33l3.67-6.98h-7.28l3.67-6.98 3.63 6.98 3.66-6.98 3.63 6.98h-7.28l3.63 6.98zm3.522 20.87h-7.18l3.59 6.92H50l7.26-13.84 3.6 6.92zm-14.48-13.9l3.63 6.98h-7.29l3.66-6.98zm.018 0l3.67-6.97 3.63 6.97h-7.3zm3.562-20.93l-3.59-6.89.01-.03h-.02l-3.56-6.84h14.46l-7.23 13.76h-.07z" stroke="#393C4C" stroke-linecap="round" stroke-linejoin="round"/><path d="M60.818 35.93l-3.56-6.84h3.79v7.28l-.15-.29.07-.15h-.15zm-21.618 0h-.11l.06.11-.13.25v-7.2h3.78l-3.6 6.84zm18.06 34.83L50 84.6l-7.2-13.84h14.46z" stroke="#393C4C" stroke-linecap="round" stroke-linejoin="round"/><path d="M60.858 77.68l-3.6-6.92h3.79v7.28l-.13-.26.05-.1h-.11zm-21.728.07l-.11.21v-7.2h3.78l-3.63 6.92h-.08l.04.07zm21.858-13.97l.06-.1v.25l-3.7-7.11.01-.01 3.63 6.97zm-3.648-6.97l-3.63-6.98h7.34v6.98h-3.71zm-18.32 7.05v-.11l.02.03 3.66-6.97h-3.68v-6.98h7.36l-7.36 14.03zm21.95-41.75l-3.66 6.98-3.63-6.98h7.29zm-21.88 0h7.29l-3.66 6.98-3.63-6.98zm10.92 48.65l-3.63-6.98h7.3l-3.67 6.98z" stroke="#393C4C" stroke-linecap="round" stroke-linejoin="round"/><path d="M53.7 63.78h7.27l-3.66 6.98-3.63-6.98h.02zm-.02 13.9h7.29l-.05.1-3.58 6.82h-.07l-3.59-6.92zm-14.59-13.9h7.29l-3.66 6.98-3.63-6.98zm3.6 20.82l-3.56-6.85-.04-.07h7.29l-3.66 6.97-.03-.04.01-.01h-.01zm10.99-48.67h7.29l-.07.15-3.56 6.77h-.06l-3.6-6.92zm-14.48 0h7.18l-.01.03-3.65 6.95-.03-.05.01-.01h-.01l-3.54-6.81-.06-.11h.11zm14.48 13.9l-3.67 6.98-3.63-6.98h7.3zm-3.61-6.98h7.29l-3.66 6.98-3.63-6.98z" stroke="#393C4C" stroke-linecap="round" stroke-linejoin="round"/><path d="M61.05 42.85v6.87l-.06.11-3.63-6.98h3.69zm-11.09 0h.11l-3.67 6.98-3.63-6.98h7.19zm-7.27.01l-3.65 6.97-.02-.04v-6.94h3.68l-.01.01zM57.34 84.6h.02l-3.66 6.97-3.63-6.97h7.27z" stroke="#393C4C" stroke-linecap="round" stroke-linejoin="round"/><path d="M61.05 91.47l-.06.1-3.63-6.97h3.69v6.87zm-14.65.1l-3.63-6.97h7.3l-3.67 6.97zm-3.71-6.97h.01l-.01.01-3.65 6.96-.02-.03V84.6h3.67zm14.65-27.79h.02l-.01.01-3.65 6.96-3.63-6.97h7.27z" stroke="#393C4C" stroke-linecap="round" stroke-linejoin="round"/><path d="M57.36 56.81h3.69v6.87l-.06.1-3.63-6.97zM46.4 63.78l-3.63-6.97h7.3l-3.67 6.97zm-7.36 0l-.02-.03v-6.94h3.68l-3.66 6.97z" stroke="#393C4C" stroke-linecap="round" stroke-linejoin="round"/><path d="M54.499 15.37a4.06 4.06 0 11-8.12 0 4.06 4.06 0 018.12 0z" fill="#F91A2B"/></svg>