<svg width="100" height="100" viewBox="0 0 100 100" fill="none" xmlns="http://www.w3.org/2000/svg">
<path d="M79.6311 19.4902L83.3611 23.2202L79.8011 29.0202L72.6311 36.7302C69.3093 38.8336 66.5061 41.6607 64.4311 45.0002L61.3811 48.0002L39.8411 68.1902L34.1011 73.1902L26.3511 81.7003L21.8711 77.2202" stroke="#393C4C" stroke-width="2" stroke-linecap="round" stroke-linejoin="round"/>
<path d="M79.7508 19.6199L76.0208 15.9199L70.2308 19.4799L62.5108 26.6399C60.4065 29.9636 57.5797 32.7699 54.2408 34.8499L51.2408 37.8499L31.0508 59.3899L26.0508 65.1399L17.5508 72.8799L22.0308 77.3599" stroke="#393C4C" stroke-width="2" stroke-linecap="round" stroke-linejoin="round"/>
<path d="M34.0412 72.9299L26.2812 65.1699" stroke="#393C4C" stroke-width="2" stroke-linecap="round" stroke-linejoin="round"/>
<path d="M72.5083 36.5002L62.7383 26.7402" stroke="#393C4C" stroke-width="2" stroke-linecap="round" stroke-linejoin="round"/>
<path d="M50.6892 57.2303L49.8592 55.0303L56.5092 48.3804C57.2542 47.6309 57.6724 46.6171 57.6724 45.5604C57.6724 44.5036 57.2542 43.4898 56.5092 42.7404C55.7598 41.9954 54.746 41.5771 53.6892 41.5771C52.6325 41.5771 51.6187 41.9954 50.8692 42.7404L44.1792 49.3903L41.9492 48.5903" stroke="#393C4C" stroke-width="2" stroke-linecap="round" stroke-linejoin="round"/>
<path d="M50.7486 48.5002C50.8331 48.5851 50.9336 48.6525 51.0443 48.6985C51.155 48.7446 51.2737 48.7682 51.3935 48.7682C51.5134 48.7682 51.6321 48.7446 51.7428 48.6985C51.8535 48.6525 51.954 48.5851 52.0385 48.5002L52.9085 47.6302C53.0777 47.4581 53.1725 47.2265 53.1725 46.9852C53.1725 46.7439 53.0777 46.5122 52.9085 46.3401C52.7365 46.171 52.5048 46.0762 52.2635 46.0762C52.0223 46.0762 51.7906 46.171 51.6185 46.3401L50.7486 47.2101C50.6636 47.2947 50.5962 47.3952 50.5502 47.5059C50.5042 47.6166 50.4805 47.7353 50.4805 47.8552C50.4805 47.975 50.5042 48.0937 50.5502 48.2044C50.5962 48.3151 50.6636 48.4156 50.7486 48.5002Z" fill="#E9342B" stroke="#E9342B" stroke-width="2" stroke-miterlimit="10"/>
<path d="M54.7383 34.9404L57.6883 37.8904H61.3683V41.5704L64.3083 44.5104" stroke="#393C4C" stroke-width="2" stroke-linecap="round" stroke-linejoin="round"/>
<path d="M66.4692 32.7695C66.4692 32.7695 66.3092 35.3395 65.4692 36.1495C65.3112 36.3083 65.1235 36.4343 64.9167 36.5202C64.7099 36.6062 64.4882 36.6504 64.2642 36.6504C64.0403 36.6504 63.8185 36.6062 63.6117 36.5202C63.4049 36.4343 63.2172 36.3083 63.0592 36.1495C62.7411 35.8292 62.5625 35.3961 62.5625 34.9446C62.5625 34.4931 62.7411 34.0599 63.0592 33.7396C63.8692 32.9196 66.4692 32.7695 66.4692 32.7695Z" fill="#393C4C"/>
<path d="M72.0301 27.2101C72.0952 27.2767 72.173 27.3295 72.2589 27.3656C72.3447 27.4017 72.4369 27.4203 72.5301 27.4203C72.6232 27.4203 72.7154 27.4017 72.8012 27.3656C72.8871 27.3295 72.9649 27.2767 73.0301 27.2101L77.2401 23.0002C77.3066 22.935 77.3594 22.8572 77.3955 22.7714C77.4316 22.6855 77.4501 22.5933 77.4501 22.5002C77.4501 22.4071 77.4316 22.3149 77.3955 22.229C77.3594 22.1431 77.3066 22.0654 77.2401 22.0002C77.1749 21.9337 77.0971 21.8808 77.0112 21.8447C76.9254 21.8086 76.8332 21.79 76.7401 21.79C76.6469 21.79 76.5547 21.8086 76.4689 21.8447C76.383 21.8808 76.3052 21.9337 76.2401 22.0002L72.0301 26.2101C71.9005 26.3444 71.8281 26.5236 71.8281 26.7101C71.8281 26.8967 71.9005 27.0759 72.0301 27.2101Z" fill="#393C4C"/>
<path d="M74.0504 29.2199C74.1156 29.2864 74.1934 29.3393 74.2793 29.3754C74.3651 29.4114 74.4573 29.4301 74.5504 29.4301C74.6436 29.4301 74.7358 29.4114 74.8216 29.3754C74.9075 29.3393 74.9853 29.2864 75.0504 29.2199L79.2604 25.0099C79.3923 24.877 79.4664 24.6973 79.4664 24.5099C79.4664 24.3226 79.3923 24.1429 79.2604 24.0099C79.1953 23.9434 79.1175 23.8906 79.0316 23.8545C78.9458 23.8184 78.8536 23.7998 78.7604 23.7998C78.6673 23.7998 78.5751 23.8184 78.4893 23.8545C78.4034 23.8906 78.3256 23.9434 78.2604 24.0099L74.0504 28.2199C73.9827 28.2844 73.9287 28.3619 73.8918 28.4479C73.855 28.5338 73.8359 28.6264 73.8359 28.7199C73.8359 28.8134 73.855 28.906 73.8918 28.9919C73.9287 29.0779 73.9827 29.1555 74.0504 29.2199Z" fill="#393C4C"/>
<path d="M70.0187 25.2004C70.1529 25.3299 70.3322 25.4023 70.5187 25.4023C70.7052 25.4023 70.8845 25.3299 71.0187 25.2004L75.2287 20.9904C75.3582 20.8561 75.4306 20.6769 75.4306 20.4904C75.4306 20.3038 75.3582 20.1246 75.2287 19.9904C75.1635 19.9238 75.0857 19.871 74.9999 19.8349C74.914 19.7988 74.8218 19.7803 74.7287 19.7803C74.6356 19.7803 74.5434 19.7988 74.4575 19.8349C74.3717 19.871 74.2939 19.9238 74.2287 19.9904L70.0187 24.2004C69.9522 24.2656 69.8993 24.3433 69.8633 24.4292C69.8272 24.5151 69.8086 24.6073 69.8086 24.7004C69.8086 24.7935 69.8272 24.8856 69.8633 24.9715C69.8993 25.0574 69.9522 25.1352 70.0187 25.2004Z" fill="#393C4C"/>
<path d="M26.3487 81.7299C25.6887 82.3899 23.1687 80.9499 20.7187 78.5099C18.2687 76.0699 16.8388 73.5099 17.5088 72.8799" stroke="#393C4C" stroke-width="2" stroke-linecap="round" stroke-linejoin="round"/>
<path d="M51.2991 77.44L49.2891 75.43L68.7191 56L74.5091 61.8L55.0891 81.22L53.1491 79.29" stroke="#393C4C" stroke-width="1.5" stroke-linejoin="round"/>
<path d="M70.3743 58.2448L50.1016 78.5176L51.9966 80.4126L72.2694 60.1399L70.3743 58.2448Z" stroke="#393C4C" stroke-width="1.5" stroke-linejoin="round"/>
<path d="M49.73 76.0098L47.25 78.4998L52.01 83.2698L54.5 80.7798" stroke="#393C4C" stroke-width="1.5" stroke-linejoin="round"/>
<path d="M75.9492 60.5596C79.2629 60.5596 81.9492 57.8733 81.9492 54.5596C81.9492 51.2459 79.2629 48.5596 75.9492 48.5596C72.6355 48.5596 69.9492 51.2459 69.9492 54.5596C69.9492 57.8733 72.6355 60.5596 75.9492 60.5596Z" stroke="#393C4C" stroke-width="1.5" stroke-linejoin="round"/>
<path d="M75.9481 57.9304C77.8093 57.9304 79.3181 56.4216 79.3181 54.5604C79.3181 52.6992 77.8093 51.1904 75.9481 51.1904C74.0869 51.1904 72.5781 52.6992 72.5781 54.5604C72.5781 56.4216 74.0869 57.9304 75.9481 57.9304Z" stroke="#393C4C" stroke-width="1.5" stroke-linejoin="round"/>
</svg>
