<svg width="100" height="100" fill="none" xmlns="http://www.w3.org/2000/svg"><path d="M60.242 80.3h-.91v-.58c0-.15 0-.34-.05-.58l-.29-2.64c-.33.65-.66 1.29-1 1.92-.34.63-.59 1.22-.91 1.9h-.35c-.31-.66-.62-1.31-.95-1.95-.33-.64-.63-1.22-.9-1.73l-.21 1.73c0 .3-.07.64-.1 1-.033.31-.05.62-.05.93a2.538 2.538 0 00-.34 0h-.35l.28-1.75.53-3.94c.12.017.24.017.36 0h.36c.31.67.62 1.32.94 2 .32.68.65 1.3 1 1.92.67-1.24 1.3-2.54 1.9-3.9h.38c.126.018.254.018.38 0l.48 4c.06.48.09.78.11.89 0 .26.09.53.16.81l-.47-.03zm8.95-3.95a.142.142 0 01-.128-.073.14.14 0 01.008-.147l1.55-2.19a.149.149 0 01.187-.044.15.15 0 01.053.044l1.55 2.19a.14.14 0 01-.12.22h-3.1zm-26.561-2.47h3.1a.14.14 0 01.11.23l-1.52 2.18a.14.14 0 01-.23 0l-1.55-2.18a.14.14 0 01.09-.23z" fill="#393C4C"/><path d="M65.69 9H48.9a15.86 15.86 0 00-15.81 15.81v45.75c0 .53 0 1 .08 1.56v3.62c.26 8.87 11 16 24.13 16 13.13 0 23.88-7.14 24.14-16V24.81A15.86 15.86 0 0065.69 9v0z" stroke="#393C4C" stroke-width="2" stroke-miterlimit="10"/><path d="M76.93 24.73a8.51 8.51 0 00-8.51-8.51H46.17a8.51 8.51 0 00-8.51 8.51v43.83c0 10 8.79 18.08 19.63 18.08s19.64-8.09 19.64-18.08V24.73zm-39.27-1.79h39.27M37.66 64.75h39.27m-39.27 5.92h39.27M45.012 81.51l7-10.84m17.57 10.84l-7-10.84M67.64 9.35c-1.53 2.38-5.58 4.08-10.35 4.08s-9-1.8-10.47-4.29" stroke="#393C4C" stroke-width="2" stroke-miterlimit="10"/><path d="M50.04 48.98h10.58" stroke="#393C4C" stroke-width="2" stroke-miterlimit="10" stroke-linecap="round"/><path d="M56.772 42.5h-6.85l1.92-2h3.32l1.61 2zm-6.58-7.93l.39-5.24 1.61 2-.21 2.73-1.2 1.28-.59-.77zm7.62-5.64l-1.92 2h-3.32l-1.61-2h6.85zm-2 5.78l.82 1-1 1h-3.72l-.8-1 1-1h3.7zm1.7 2.15l-.39 5.25-1.61-2 .21-2.74 1.2-1.26.59.75zm1.378 5.64l.15-2h1.77l-.16 2h-1.76zm5.689-5.1l-.21 2.73-1.9 2 .38-5.25.73-.76 1 1.28zm5 5.14h-6.81l1.92-2h3.32l1.57 2zm-6.58-7.93l.39-5.24 1.62 2-.2 2.73-1.22 1.28-.59-.77zm7.62-5.64l-1.92 2h-3.28l-1.61-2h6.81zm-2 5.78l.82 1-1 1h-3.68l-.8-1 1-1h3.66zm1.7 2.15l-.38 5.25-1.62-2 .21-2.74 1.2-1.26.59.75zm-1.54-2.79l.21-2.77 1.92-2-.4 5.26-.73.78-1-1.27z" fill="#393C4C"/><path d="M36.66 85.32c9.753 0 17.66-7.907 17.66-17.66S46.413 50 36.66 50 19 57.907 19 67.66s7.907 17.66 17.66 17.66z" fill="#fff" stroke="#F91A2B" stroke-width="2" stroke-miterlimit="10"/><path d="M41.946 68.405l-8.214 5.117a.39.39 0 01-.537-.13.385.385 0 01-.054-.195V62.963a.386.386 0 01.59-.325l8.235 5.117a.38.38 0 01-.02.65z" fill="#F91A2B" stroke="#F91A2B" stroke-width="2" stroke-miterlimit="10"/></svg>