<svg width="82" height="36" fill="none" xmlns="http://www.w3.org/2000/svg"><path d="M0 26.922c0 5.597 4.155 8.183 8.152 8.183 1.903 0 3.52-.36 4.948-1.08v-2.619c-1.269.786-2.95 1.277-4.6 1.277-2.98 0-5.962-1.8-5.962-5.826 0-4.124 3.076-5.827 6.026-5.827 1.618 0 3.236.491 4.377 1.408v-2.553c-1.3-.884-2.981-1.277-4.694-1.277C4.282 18.608 0 21.194 0 26.922zM16.69 8.347v26.365h2.537v-10.54c1.015-1.57 2.696-3.142 4.948-3.142 2.347 0 4.092 1.375 4.092 4.321v9.361h2.537v-9.688c0-3.83-2.696-6.416-6.343-6.416-2.252 0-4.156 1.146-5.234 2.39V8.348h-2.538zm17.57 18.51c0 5.597 3.932 8.248 8.436 8.248 1.999 0 3.997-.393 5.393-1.145v-2.554c-1.3.753-3.14 1.277-5.012 1.277-3.077 0-5.963-1.375-6.28-4.68h12.116c.952-4.452-1.205-9.395-7.073-9.395-3.616 0-7.58 2.75-7.58 8.249zm12.4-1.147h-9.864c.19-3.077 2.6-4.68 5.202-4.68 3.87 0 4.884 3.01 4.662 4.68zm4.976 1.212c0 5.597 4.156 8.183 8.152 8.183 1.903 0 3.521-.36 4.948-1.08v-2.619c-1.268.786-2.95 1.277-4.599 1.277-2.981 0-5.963-1.8-5.963-5.826 0-4.124 3.077-5.827 6.027-5.827 1.617 0 3.235.491 4.377 1.408v-2.553c-1.3-.884-2.982-1.277-4.695-1.277-3.965 0-8.247 2.586-8.247 8.314zM26.197 13.526c-1.41 0-2.662-.671-3.756-2.014l.644-1.043c.49.612.98 1.061 1.47 1.35.5.287 1.06.43 1.681.43.613 0 1.107-.197 1.484-.593.376-.407.565-.935.565-1.582 0-.612-.167-1.097-.5-1.457-.332-.36-.962-.671-1.89-.935-1.095-.324-1.883-.761-2.364-1.313-.481-.551-.722-1.336-.722-2.355 0-.995.284-1.816.853-2.464.57-.647 1.292-.97 2.167-.97 1.217 0 2.293.515 3.23 1.546l-.604 1.097c-.814-.912-1.698-1.367-2.652-1.367-.587 0-1.06.198-1.418.593-.36.384-.539.875-.539 1.475 0 .623.17 1.115.512 1.474.35.36 1.011.684 1.983.971 1.042.312 1.799.75 2.272 1.313.481.552.722 1.313.722 2.284 0 1.067-.293 1.93-.88 2.59-.586.647-1.34.97-2.258.97zm5.247-.179V.759h6.645v1.295h-5.607V6.35h5.016v1.295h-5.016v4.406h5.672v1.295h-6.71zm8.797 0V.759h1.038v11.275h5.173v1.313h-6.21zm8.13 0V.759h6.605v1.313h-5.568v4.495h4.977v1.295h-4.977v5.485h-1.037zm11.493 0V8.365L56.043.76h1.26l3.1 6.294L63.527.759h1.208l-3.822 7.588v5h-1.05z" fill="#0E4274"/><path d="M68.19 5.758h2.589v4.316h-2.59V5.758zm0 6.042h2.589v4.316h-2.59V11.8zm11.221 6.042h2.59v16.4h-2.59l-7.337-7.768 7.337-8.632zm-11.221 0h2.589v4.316h-2.59v-4.316zm0 6.042h2.589V28.2h-2.59v-4.316zm0 6.042h2.589v4.316h-2.59v-4.316z" fill="#E9342B"/></svg>